<svg id="mweusUkurasaBrandLogo" xmlns="http://www.w3.org/2000/svg" xmlns:xlink="http://www.w3.org/1999/xlink" width="150" height="150" viewBox="0 0 221.085 221.045"><defs><style>.mweus-ukurasa-brand-logo-color {fill: url(#mweusUkurasaBrandLogoColorGradient);}.mweus-ukurasa-brand-logo-shadow {filter: url(#mweusUkurasaBrandLogoShadow);}</style><radialGradient id="mweusUkurasaBrandLogoColorGradient" cx="0.5" cy="0.5" r="0.5" gradientUnits="objectBoundingBox"><stop offset="0" stop-color="gold"/><stop offset="1" stop-color="#f3bb07"/></radialGradient><filter id="mweusUkurasaBrandLogoShadow" x="0" y="0" width="221.085" height="221.045" filterUnits="userSpaceOnUse"><feOffset dy="1" input="SourceAlpha"/><feGaussianBlur stdDeviation="1" result="blur"/><feFlood flood-opacity="0.302"/><feComposite operator="in" in2="blur"/><feComposite in="SourceGraphic"/></filter></defs><g transform="translate(-1071.957 521.045)"><g class="mweus-ukurasa-brand-logo-shadow" transform="matrix(1, 0, 0, 1, 1071.96, -521.04)"><path class="mweus-ukurasa-brand-logo-color" d="M85.835,212.816a106.788,106.788,0,0,1-31.981-12.138c1.454-.84,2.911-1.725,4.326-2.633a103.715,103.715,0,0,0,98.673-.247c1.466.95,2.98,1.877,4.5,2.759a107.875,107.875,0,0,1-75.52,12.259Zm1.013-7.844A99.97,99.97,0,0,1,9.032,127.153a100.994,100.994,0,0,1,0-40.307A99.973,99.973,0,0,1,86.847,9.031a100.994,100.994,0,0,1,40.307,0,99.971,99.971,0,0,1,77.817,77.818,100.994,100.994,0,0,1,0,40.307,99.969,99.969,0,0,1-77.819,77.817,100.994,100.994,0,0,1-40.307,0Zm19.79-6.7a91.607,91.607,0,0,0,81.683-51.021L24.245,145.776a91.363,91.363,0,0,0,82.392,52.5Zm19.111-54.527h8.176L189.3,145.2c-.325.706-.653,1.4-.977,2.057l8.687.078V145.4l-7.709-.2a89.978,89.978,0,0,0,8.25-37.833A90.911,90.911,0,1,0,22.365,141.472a16.145,16.145,0,0,0-5.358,2.277v1.961l7.237.066h0c-.665-1.421-1.3-2.869-1.88-4.3a19.2,19.2,0,0,1,4.478-.527,22.521,22.521,0,0,1,10.581,2.8c1.666.413,9.533.623,23.382.623,23.584,0,56.785-.617,57.118-.623Zm40,54.118c-1.519-.83-3.038-1.709-4.514-2.615a104.266,104.266,0,0,0,34.093-34.315c.925,1.513,1.821,3.067,2.664,4.62-.448.7-.9,1.384-1.349,2.048a108.137,108.137,0,0,1-29.043,29.04c-.611.412-1.236.824-1.856,1.226Zm-116.5,0c-.628-.406-1.252-.818-1.856-1.226A108.137,108.137,0,0,1,18.359,167.6c-.53-.785-1.06-1.592-1.574-2.4.782-1.43,1.615-2.866,2.471-4.267a104.244,104.244,0,0,0,34.3,34.443c-1.409.859-2.857,1.7-4.3,2.487Zm81.236-17.884a14.226,14.226,0,0,0,.84-2.1c.418-1.186.7-1.958.836-2.292a2.623,2.623,0,0,1,.3-.6.927.927,0,0,1,.664-.193h.24a2.939,2.939,0,0,0-.632.96c.493-.658.935-.992,1.311-.992.355,0,.536.248.536.736a2.428,2.428,0,0,1-.384,1.247,3.079,3.079,0,0,1-.9.992h.064a1.1,1.1,0,0,0,.668-.264,3.256,3.256,0,0,0,.588-.584,6.163,6.163,0,0,0,.384-.6l.074-.125.006-.014v-.009a2.7,2.7,0,0,1,.7-.98,1.48,1.48,0,0,1,1-.4,1.041,1.041,0,0,1,.481.116.572.572,0,0,1,.3.372.868.868,0,0,1,.272-.32.6.6,0,0,1,.344-.136l.4.008h.08a3.309,3.309,0,0,0-.648,1.093,3.718,3.718,0,0,0-.383,1.275c0,.139.049.208.144.208.308,0,.706-.46,1.184-1.368.022-.037.04-.056.056-.056.032,0,.049.05.049.148a.557.557,0,0,1-.08.284c-.652,1.1-1.207,1.656-1.648,1.656-.287,0-.432-.223-.432-.664a2.973,2.973,0,0,1,.167-.976c-.6,1.073-1.174,1.616-1.687,1.616-.356,0-.536-.247-.536-.736a2.7,2.7,0,0,1,.028-.382,4.111,4.111,0,0,1-.66.751,1.964,1.964,0,0,1-1.327.488c-.509,0-.8-.131-.864-.392l-.448,1.4a3.988,3.988,0,0,1-.244.612.4.4,0,0,1-.188.18.726.726,0,0,1-.265.04Zm2.759-4.384a3.291,3.291,0,0,0-.7.848,2.013,2.013,0,0,0-.368.968c0,.25.078.376.232.376.276,0,.58-.277.9-.824a2.839,2.839,0,0,0,.489-1.288c0-.132-.041-.211-.121-.232a.235.235,0,0,0-.072-.008.621.621,0,0,0-.357.165Zm2.865.2a2.422,2.422,0,0,0-.5,1.308c0,.165.065.248.192.248a.789.789,0,0,0,.488-.26,3.094,3.094,0,0,0,.5-.612c.327-.516.566-.906.712-1.16a.353.353,0,0,0-.376-.256,1.388,1.388,0,0,0-1.014.737Zm-58.424,3.58a.64.64,0,0,1,.124-.376.389.389,0,0,1,.332-.176.277.277,0,0,1,.28.168.319.319,0,0,0-.124.168.649.649,0,0,0-.044.228.226.226,0,0,0,.085.18.328.328,0,0,0,.22.072.894.894,0,0,0,.7-.388,3.8,3.8,0,0,0,.528-.9c.04-.1.328-.888.768-2.112-.626,1.179-1.224,1.777-1.776,1.777-.361,0-.544-.247-.544-.736a2.635,2.635,0,0,1,.032-.41c-.1.149-.173.254-.237.341a3.043,3.043,0,0,1-.556.58.954.954,0,0,1-.568.247c-.313,0-.472-.175-.472-.52a7.715,7.715,0,0,1,.6-2.088.359.359,0,0,0,.032-.151c0-.112-.071-.168-.212-.168a.763.763,0,0,0-.416.132,1.341,1.341,0,0,0-.372.375,5.7,5.7,0,0,0-.3.5,4.123,4.123,0,0,0-.252.581c-.075.212-.137.4-.185.548s-.086.291-.136.472c-.043.161-.07.259-.076.276H74.34a5.865,5.865,0,0,1,.313-.934l-.042.061-.067.093a2.984,2.984,0,0,1-.555.58.958.958,0,0,1-.569.247c-.3,0-.447-.21-.447-.624a3.036,3.036,0,0,1,.041-.5c-.083.122-.16.228-.242.338a3.1,3.1,0,0,1-.519.536.92.92,0,0,1-.553.247c-.3,0-.455-.215-.455-.64a3.657,3.657,0,0,1,.256-1.232v-.008a2.961,2.961,0,0,1-.26.417h0c-.6.969-1.114,1.46-1.528,1.46-.287,0-.432-.223-.432-.664a2.943,2.943,0,0,1,.168-.976c-.606,1.073-1.174,1.616-1.688,1.616-.355,0-.535-.247-.535-.736a2.741,2.741,0,0,1,.026-.37c-.08.119-.176.245-.291.386a2.485,2.485,0,0,1-.408.408,1.715,1.715,0,0,1-1.013.368,1.245,1.245,0,0,1-.82-.26.982.982,0,0,1-.311-.8c0-.053,0-.106,0-.158-.1.155-.186.28-.262.382a2.912,2.912,0,0,1-.54.556.96.96,0,0,1-.571.252c-.3,0-.456-.226-.456-.672a3.571,3.571,0,0,1,.176-1.031,4.486,4.486,0,0,1,.519-1.112.9.9,0,0,1-.56.224.49.49,0,0,1-.184-.04,8.127,8.127,0,0,1-.612,1.12c-.03,0-.044-.043-.044-.132a1.023,1.023,0,0,1,.1-.367c.067-.158.139-.31.216-.453s.119-.223.124-.239a.487.487,0,0,1-.288-.464.459.459,0,0,1,.1-.288.331.331,0,0,1,.275-.128.387.387,0,0,1,.288.112.529.529,0,0,0-.015.144.411.411,0,0,0,.156.34.591.591,0,0,0,.38.124.423.423,0,0,0,.1-.008.755.755,0,0,1,.568-.4l.408.007h.08a1.758,1.758,0,0,0-.34.52c-.166.327-.27.536-.328.652a5.843,5.843,0,0,0-.24.591,1.939,1.939,0,0,0-.131.6c0,.154.054.231.159.231a.647.647,0,0,0,.292-.148,1.651,1.651,0,0,0,.312-.3,4.188,4.188,0,0,0,.272-.4l.209-.346a2.574,2.574,0,0,1,.435-.691,1.813,1.813,0,0,1,1.4-.7.855.855,0,0,1,.576.188.584.584,0,0,1,.216.452.827.827,0,0,1-.424.72,1.812,1.812,0,0,1-1,.272,1.069,1.069,0,0,1-.5-.087,2.1,2.1,0,0,0-.152.72c0,.446.191.671.568.671a1.182,1.182,0,0,0,.692-.26,2.978,2.978,0,0,0,.607-.583,5.739,5.739,0,0,0,.456-.717l.008-.019.008-.02a2.71,2.71,0,0,1,.7-.98,1.483,1.483,0,0,1,1-.4,1.04,1.04,0,0,1,.48.116.572.572,0,0,1,.3.372.865.865,0,0,1,.272-.32.6.6,0,0,1,.344-.136l.4.008h.08a3.288,3.288,0,0,0-.648,1.093,3.719,3.719,0,0,0-.4,1.3c0,.139.049.208.144.208.307,0,.7-.455,1.176-1.354.048-.094.1-.2.164-.317.124-.238.228-.46.308-.656h-.536c-.015,0-.023-.013-.023-.036a.285.285,0,0,1,.059-.124c.041-.059.071-.088.093-.088h.608c.382-.918.776-1.384,1.168-1.384.223,0,.356,0,.384-.007a3.512,3.512,0,0,0-.88,1.391h.808l.008.008c0,.027-.03.074-.088.14a.238.238,0,0,1-.152.1h-.688a7.649,7.649,0,0,0-.632,2.016c0,.2.065.3.193.3.185,0,.406-.161.655-.481a2.53,2.53,0,0,0,.232-.352l.186-.3a6.029,6.029,0,0,1,.445-.967c.186-.319.4-.481.625-.481l.4.008h.08a1.684,1.684,0,0,0-.34.52c-.141.282-.248.5-.316.64a6.186,6.186,0,0,0-.236.584,1.872,1.872,0,0,0-.132.6c0,.154.051.231.152.231a.57.57,0,0,0,.293-.139,1.566,1.566,0,0,0,.308-.3,3.92,3.92,0,0,0,.268-.4l.2-.318.011-.017.049-.081c.026-.043.049-.078.067-.1a4.08,4.08,0,0,0,.274-1.111.239.239,0,0,0-.024-.121h.337a.729.729,0,0,1,.36.057.176.176,0,0,1,.079.151,1.8,1.8,0,0,1-.087.392,1.989,1.989,0,0,1,1.352-.64c.3,0,.456.14.456.416a.938.938,0,0,1-.04.272c-.027.092-.094.275-.2.545a4.286,4.286,0,0,0-.352,1.2c0,.128.049.192.144.192a.563.563,0,0,0,.292-.144,1.75,1.75,0,0,0,.312-.3,4.31,4.31,0,0,0,.272-.391c.09-.143.175-.282.252-.412v-.008l.008-.013a2.7,2.7,0,0,1,.683-.943,1.483,1.483,0,0,1,1-.4,1.068,1.068,0,0,1,.475.112.539.539,0,0,1,.292.368.774.774,0,0,1,.284-.352,1.133,1.133,0,0,1,.54-.1h.32a1.38,1.38,0,0,0-.368.489,6.783,6.783,0,0,0-.34.74c-.094.247-.217.582-.364,1a7.429,7.429,0,0,1-.864,1.893,2.741,2.741,0,0,1-.828.72,1.786,1.786,0,0,1-.836.252c-.534.009-.8-.16-.8-.5Zm1.82-3.58a2.458,2.458,0,0,0-.5,1.316c0,.159.065.24.192.24a.789.789,0,0,0,.488-.26,3.094,3.094,0,0,0,.5-.612,12.376,12.376,0,0,0,.72-1.168.353.353,0,0,0-.375-.256,1.4,1.4,0,0,0-1.023.745Zm-11.02,0a2.421,2.421,0,0,0-.5,1.308c0,.165.065.248.192.248a.789.789,0,0,0,.488-.26,3.094,3.094,0,0,0,.5-.612c.327-.516.566-.906.712-1.16a.352.352,0,0,0-.375-.256,1.386,1.386,0,0,0-1.015.737Zm-2.64-.365a1.059,1.059,0,0,0-.384.625c0,.106.1.16.3.16a1.184,1.184,0,0,0,1-.936.2.2,0,0,0-.224-.232,1.069,1.069,0,0,0-.689.392Zm30.4,4.012a.522.522,0,0,1-.284-.491.507.507,0,0,1,.108-.317.313.313,0,0,1,.248-.139.419.419,0,0,1,.236.064.379.379,0,0,1,.136.144c-.1.032-.144.145-.144.336a.3.3,0,0,0,.108.244.406.406,0,0,0,.276.093c.43,0,.8-.39,1.088-1.16L98.472,177a5.232,5.232,0,0,1-.652.707,1.426,1.426,0,0,1-.432.284,1.29,1.29,0,0,1-.368.048.4.4,0,0,1-.34-.172.82.82,0,0,1-.123-.5,2.363,2.363,0,0,1,.066-.478c-.087.131-.16.237-.226.326a3.043,3.043,0,0,1-.556.58.954.954,0,0,1-.568.247c-.313,0-.472-.183-.472-.544a5.041,5.041,0,0,1,.5-1.8,1.433,1.433,0,0,0,.113-.409c0-.1-.049-.159-.144-.159a.862.862,0,0,0-.3.1,1.448,1.448,0,0,0-.412.312,3.244,3.244,0,0,0-.316.384,2.972,2.972,0,0,0-.264.527c-.1.233-.16.4-.192.5-.158.49-.26.831-.312,1.04H92.69c.284-.786.471-1.292.572-1.552.094-.238.164-.423.188-.5l.072-.224a1.367,1.367,0,0,0,.088-.424c0-.111-.051-.167-.152-.167a.847.847,0,0,0-.348.112,1.635,1.635,0,0,0-.427.329,2,2,0,0,0-.348.5c-.086.175-.162.34-.224.492a5.344,5.344,0,0,0-.172.508c-.058.2-.11.361-.156.488s-.087.257-.14.436h-.776a5.343,5.343,0,0,1,.192-.6l.52-1.327a3.665,3.665,0,0,0,.32-1.168.217.217,0,0,0-.016-.1h.336a.766.766,0,0,1,.352.052.159.159,0,0,1,.08.14,2,2,0,0,1-.1.408,2.121,2.121,0,0,1,1.408-.64c.281,0,.424.119.424.352a1.058,1.058,0,0,1-.088.376,2.144,2.144,0,0,1,1.5-.728c.276,0,.416.119.416.352a.829.829,0,0,1-.056.3l-.13.334v.01l-.011.028c-.059.152-.107.277-.144.376s-.076.208-.129.364a2.269,2.269,0,0,0-.151.652c0,.142.043.212.131.212a.565.565,0,0,0,.332-.175,2.362,2.362,0,0,0,.3-.3,3.684,3.684,0,0,0,.248-.364c.1-.164.174-.281.239-.391a3.524,3.524,0,0,1,.328-.71,1.145,1.145,0,0,1,.473-.464,1.747,1.747,0,0,1,.668-.1.028.028,0,0,1,.031.032.129.129,0,0,1-.048.08,4.1,4.1,0,0,0-1.008,2.288c0,.181.051.272.152.272.192,0,.439-.193.736-.576a5.05,5.05,0,0,0,.688-1.152l.092-.232c.041-.1.068-.17.085-.208s.041-.089.076-.156a.511.511,0,0,1,.092-.136q.04-.036.108-.092a.333.333,0,0,1,.14-.072,2.117,2.117,0,0,1,.432-.049h.328a1.673,1.673,0,0,0-.5.752c-.137.331-.255.64-.352.916l-.164.468-.012.031c-.021.057-.068.193-.148.428s-.143.41-.188.524a3.054,3.054,0,0,1-.464.888,1.953,1.953,0,0,1-.656.524,1.763,1.763,0,0,1-.792.2,1.4,1.4,0,0,1-.694-.159Zm30.883-1.372a1.547,1.547,0,0,1-.223-.856,3.742,3.742,0,0,1,.4-1.608,5.831,5.831,0,0,1,1.028-1.5,6.584,6.584,0,0,1,1.452-1.147,4.839,4.839,0,0,1,1.62-.617l-.064.216a4.6,4.6,0,0,0-1.788.928,5.682,5.682,0,0,0-1.383,1.661,3.987,3.987,0,0,0-.533,1.939c0,.648.256.977.76.977a2.109,2.109,0,0,0,.264-.016l-.056.24a2.221,2.221,0,0,1-.792.128.758.758,0,0,1-.686-.336Zm26.144.336h0l.064-.215a4.958,4.958,0,0,0,2.569-1.716,4.336,4.336,0,0,0,1.128-2.8c0-.658-.253-.992-.751-.992a1.94,1.94,0,0,0-.265.015l.056-.239a2.228,2.228,0,0,1,.792-.129.759.759,0,0,1,.68.348,1.553,1.553,0,0,1,.224.852,4.315,4.315,0,0,1-1.056,2.68,6.586,6.586,0,0,1-1.608,1.452,4.935,4.935,0,0,1-1.831.74Zm-96.848-1.928a3.691,3.691,0,0,1,.3-1.388,5.367,5.367,0,0,1,.8-1.345,4.051,4.051,0,0,1,1.26-1.02,3.2,3.2,0,0,1,1.492-.4,2.1,2.1,0,0,1,1.128.252.748.748,0,0,1,.392.644.944.944,0,0,1-.064.32,1.169,1.169,0,0,1-.476.552,1.322,1.322,0,0,1-.724.224.5.5,0,0,1-.288-.076.226.226,0,0,1-.112-.2.456.456,0,0,1,.1-.257.571.571,0,0,0,.2.032.891.891,0,0,0,.576-.216.656.656,0,0,0,.264-.52c0-.308-.207-.464-.616-.464a2.708,2.708,0,0,0-1.592.561,4.185,4.185,0,0,0-1.252,1.452,3.828,3.828,0,0,0-.476,1.812c0,.946.436,1.425,1.3,1.425a3.065,3.065,0,0,0,1.712-.625,3.164,3.164,0,0,0,1.2-1.352.324.324,0,0,1,.152.28,1.467,1.467,0,0,1-.512.892,3.7,3.7,0,0,1-1.288.848,4.166,4.166,0,0,1-1.584.317c-1.26.014-1.893-.576-1.893-1.739Zm85.5,1.5a.554.554,0,0,1-.3-.508.606.606,0,0,1,.113-.352.354.354,0,0,1,.308-.16.242.242,0,0,1,.252.144.487.487,0,0,0-.152.352c0,.266.151.4.448.4a.651.651,0,0,0,.46-.184.546.546,0,0,0,.2-.4.775.775,0,0,0-.1-.388,1.275,1.275,0,0,0-.232-.3l-.179-.167h0l-.089-.084a.967.967,0,0,1-.329-.716.88.88,0,0,1,.309-.68,1.416,1.416,0,0,1,1.412-.156.4.4,0,0,1,.231.372.664.664,0,0,1-.152.436.5.5,0,0,1-.411.184c-.173,0-.26-.081-.26-.24,0-.037.062-.094.184-.168s.185-.151.185-.231a.2.2,0,0,0-.1-.18.552.552,0,0,0-.284-.06.6.6,0,0,0-.356.128.4.4,0,0,0-.172.337.564.564,0,0,0,.176.391,1.9,1.9,0,0,0,.384.312,1.446,1.446,0,0,1,.383.355.778.778,0,0,1,.176.481.882.882,0,0,1-.116.452,1.043,1.043,0,0,1-.276.32,2.483,2.483,0,0,0,.952-.959c.033-.044.09-.133.168-.265q.039-.072.075-.132l.04-.071a5.97,5.97,0,0,1,.446-.964c.185-.319.4-.481.624-.481l.4.008h.08a1.684,1.684,0,0,0-.34.52c-.141.282-.248.5-.316.64s-.15.344-.237.584a1.9,1.9,0,0,0-.131.6c0,.156.049.231.152.231a.568.568,0,0,0,.292-.139,1.565,1.565,0,0,0,.308-.3,3.922,3.922,0,0,0,.268-.4l.18-.293.006-.009.032-.053c.019-.05.04-.1.061-.153a2.431,2.431,0,0,1,.688-.916,1.567,1.567,0,0,1,1.028-.384c.632,0,.952.339.952,1.008a2.212,2.212,0,0,1-.168.808.4.4,0,0,0,.344.168c.276,0,.54-.234.784-.7a.2.2,0,0,1,.014-.023,4,4,0,0,0,.266-1.088.244.244,0,0,0-.023-.121h.336a.724.724,0,0,1,.36.057.176.176,0,0,1,.08.151,1.769,1.769,0,0,1-.088.392,1.992,1.992,0,0,1,1.352-.64c.3,0,.456.14.456.416a.979.979,0,0,1-.04.272c-.028.094-.1.282-.2.545a4.327,4.327,0,0,0-.352,1.2c0,.128.049.192.144.192a.562.562,0,0,0,.292-.144,1.713,1.713,0,0,0,.311-.3,4.229,4.229,0,0,0,.273-.391c.109-.175.189-.306.252-.412.1-.176.116-.176.12-.176.032,0,.048.049.048.148a.548.548,0,0,1-.08.284c-.194.327-.376.6-.54.828a2.984,2.984,0,0,1-.555.58.954.954,0,0,1-.568.247c-.313,0-.472-.175-.472-.52a7.685,7.685,0,0,1,.6-2.088.379.379,0,0,0,.031-.151c0-.112-.071-.168-.212-.168a.763.763,0,0,0-.416.132,1.355,1.355,0,0,0-.373.375,4.47,4.47,0,0,0-.3.5,4.164,4.164,0,0,0-.252.581c-.087.248-.144.418-.184.548-.049.162-.094.316-.136.472-.048.175-.071.261-.077.276h-.776a7.858,7.858,0,0,1,.414-1.193.862.862,0,0,1-.49.185.72.72,0,0,1-.46-.152,2.8,2.8,0,0,1-.684.9,1.554,1.554,0,0,1-1.021.328.9.9,0,0,1-.652-.244,1,1,0,0,1-.252-.744,2.052,2.052,0,0,1,.012-.226c-.106.162-.186.275-.256.37a3.043,3.043,0,0,1-.556.58.954.954,0,0,1-.568.247c-.3,0-.448-.21-.448-.624a3.189,3.189,0,0,1,.045-.519,4.1,4.1,0,0,1-.749.863,1.965,1.965,0,0,1-1.264.392,1.512,1.512,0,0,1-.76-.165Zm5.592-1.8a2.515,2.515,0,0,0-.288,1.072c0,.319.139.488.416.5a.826.826,0,0,0,.636-.364,3.787,3.787,0,0,0,.492-.8A.735.735,0,0,1,148.5,176a.5.5,0,0,1,.115-.345.411.411,0,0,1,.317-.128h.048c-.022-.281-.15-.424-.384-.424-.363.005-.727.366-1.077,1.077Zm-8.616,1.8a.554.554,0,0,1-.3-.508.606.606,0,0,1,.113-.352.356.356,0,0,1,.308-.16.242.242,0,0,1,.252.144.487.487,0,0,0-.152.352c0,.266.151.4.448.4a.651.651,0,0,0,.46-.184.546.546,0,0,0,.2-.4.775.775,0,0,0-.1-.388,1.274,1.274,0,0,0-.232-.3l-.179-.167h0l-.089-.084a.967.967,0,0,1-.329-.716.88.88,0,0,1,.309-.68,1.416,1.416,0,0,1,1.412-.156.4.4,0,0,1,.231.372.664.664,0,0,1-.152.436.5.5,0,0,1-.411.184c-.173,0-.26-.081-.26-.24,0-.037.062-.094.184-.168s.184-.15.184-.231a.2.2,0,0,0-.1-.18.552.552,0,0,0-.284-.06.6.6,0,0,0-.356.128.4.4,0,0,0-.172.337.56.56,0,0,0,.176.391,1.9,1.9,0,0,0,.384.312,1.446,1.446,0,0,1,.383.355.778.778,0,0,1,.176.481.882.882,0,0,1-.116.452,1.043,1.043,0,0,1-.276.32,2.483,2.483,0,0,0,.952-.959c.033-.044.09-.133.168-.265a2.587,2.587,0,0,1,.311-.5c.032,0,.049.05.049.148a.553.553,0,0,1-.08.283,5.372,5.372,0,0,1-1.088,1.392,1.965,1.965,0,0,1-1.264.392,1.512,1.512,0,0,1-.76-.171Zm-35.876-.068a.833.833,0,0,1-.268-1.264.631.631,0,0,1,.524-.232.469.469,0,0,1,.46.239.674.674,0,0,0-.28.54.6.6,0,0,0,.212.489.858.858,0,0,0,.555.172,1.2,1.2,0,0,0,.844-.344,1.147,1.147,0,0,0,.364-.868,2.033,2.033,0,0,0-.688-1.252c0-.012-.108-.121-.28-.3a3.43,3.43,0,0,1-.452-.581,1.331,1.331,0,0,1-.18-.7,1.356,1.356,0,0,1,.544-1.12,2.035,2.035,0,0,1,1.284-.425,1.809,1.809,0,0,1,1.06.24.71.71,0,0,1,.32.58,1.009,1.009,0,0,1-.228.632.765.765,0,0,1-.636.292c-.271,0-.408-.115-.408-.344a.979.979,0,0,1,.016-.128.506.506,0,0,0,.376-.168.527.527,0,0,0,.159-.368.385.385,0,0,0-.192-.328.821.821,0,0,0-.464-.128,1.092,1.092,0,0,0-.768.28.811.811,0,0,0-.16,1.1,2.228,2.228,0,0,0,.276.381c.087.093.233.232.432.416s.319.294.356.332a1.854,1.854,0,0,1,.607,1.324,1.586,1.586,0,0,1-.648,1.248,2.38,2.38,0,0,1-1.552.532,2.541,2.541,0,0,1-1.181-.238Zm-16.908.068a.554.554,0,0,1-.3-.508.606.606,0,0,1,.113-.352.356.356,0,0,1,.308-.16.242.242,0,0,1,.252.144.487.487,0,0,0-.152.352c0,.266.151.4.448.4a.651.651,0,0,0,.46-.184.546.546,0,0,0,.2-.4.775.775,0,0,0-.1-.388,1.275,1.275,0,0,0-.232-.3l-.179-.167h0l-.089-.084a.964.964,0,0,1-.328-.716.879.879,0,0,1,.308-.68,1.416,1.416,0,0,1,1.412-.156.4.4,0,0,1,.231.372.668.668,0,0,1-.151.436.508.508,0,0,1-.412.184c-.173,0-.26-.081-.26-.24,0-.037.062-.094.184-.168s.185-.15.185-.231a.2.2,0,0,0-.1-.18.557.557,0,0,0-.284-.06.59.59,0,0,0-.355.128.4.4,0,0,0-.173.337.564.564,0,0,0,.176.391,1.947,1.947,0,0,0,.384.312,1.447,1.447,0,0,1,.383.355.778.778,0,0,1,.176.481.882.882,0,0,1-.116.452,1.043,1.043,0,0,1-.276.32,2.483,2.483,0,0,0,.952-.959c.033-.044.09-.133.168-.265a2.587,2.587,0,0,1,.311-.5c.032,0,.049.05.049.148a.553.553,0,0,1-.08.283,5.371,5.371,0,0,1-1.088,1.392,1.964,1.964,0,0,1-1.264.392,1.515,1.515,0,0,1-.758-.171Zm32.684-.252a1.612,1.612,0,0,1-.165-.728c0-.531.081-.8.24-.8a1.456,1.456,0,0,0,.7-.172.515.515,0,0,0,.32-.453c0-.148-.086-.223-.257-.223-.366,0-.778.4-1.224,1.2-.042.08-.132.267-.267.556a4.7,4.7,0,0,1-.36.66.413.413,0,0,1-.309.224h-.488a8.965,8.965,0,0,0,.427-1.015c-.492.706-.922,1.063-1.274,1.063-.3,0-.448-.223-.448-.664a2.4,2.4,0,0,1,.032-.4c-.5.706-.982,1.064-1.432,1.064a.383.383,0,0,1-.324-.167.832.832,0,0,1-.124-.5,2.552,2.552,0,0,1,.085-.551c-.533.806-1,1.215-1.372,1.215-.287,0-.432-.223-.432-.664a2.973,2.973,0,0,1,.167-.976c-.6,1.073-1.174,1.616-1.687,1.616-.356,0-.536-.247-.536-.736a2.685,2.685,0,0,1,.029-.384c-.514.76-.966,1.144-1.34,1.144-.313,0-.473-.183-.473-.544a5.041,5.041,0,0,1,.5-1.8,1.433,1.433,0,0,0,.113-.409c0-.1-.049-.159-.144-.159a.893.893,0,0,0-.324.112,1.608,1.608,0,0,0-.437.329,2,2,0,0,0-.348.5c-.093.189-.167.355-.223.492s-.111.3-.173.508-.11.361-.156.488-.1.28-.14.436h-.777c.143-.365.352-.958.62-1.764s.5-1.436.692-1.9a10,10,0,0,1,.564-1.167,3.246,3.246,0,0,1,.632-.8,1.121,1.121,0,0,1,.752-.32c.263,0,.4.127.4.375a1.687,1.687,0,0,1-.216.7,10.315,10.315,0,0,1-1.552,2.111,3.382,3.382,0,0,1,.684-.408,1.37,1.37,0,0,1,.484-.1c.3,0,.456.135.456.4a.761.761,0,0,1-.057.3c-.038.093-.079.2-.123.311l-.031.079v.006c-.031.08-.057.147-.079.2l-.116.3c-.05.135-.087.243-.112.329a1.931,1.931,0,0,0-.1.535c0,.133.046.2.136.2.289,0,.65-.387,1.072-1.15.012-.03.023-.059.036-.089a2.7,2.7,0,0,1,.7-.98,1.481,1.481,0,0,1,1-.4,1.041,1.041,0,0,1,.481.116.572.572,0,0,1,.3.372.868.868,0,0,1,.272-.32.6.6,0,0,1,.344-.136l.4.008h.08a3.309,3.309,0,0,0-.648,1.093,3.717,3.717,0,0,0-.383,1.275c0,.139.049.208.144.208.3,0,.691-.443,1.157-1.316a4.2,4.2,0,0,1,.491-1.012.344.344,0,0,1,.172-.148,1.472,1.472,0,0,1,.348-.028h.383a5.26,5.26,0,0,0-.432.736,4.345,4.345,0,0,0-.527,1.608c0,.2.074.3.22.3s.322-.142.524-.424a8.922,8.922,0,0,0,.653-1.1c.226-.44.365-.7.4-.764.2-.307.387-.464.568-.464l.383.008a.829.829,0,0,0,.152-.008,3.18,3.18,0,0,0-.644,1.059,3.73,3.73,0,0,0-.42,1.309c0,.161.052.239.16.239a.534.534,0,0,0,.284-.136,1.6,1.6,0,0,0,.309-.3,4.5,4.5,0,0,0,.275-.4l.257-.416.008-.013.006-.011c.323-.941.555-1.554.709-1.873l.1-.208c.061-.128.1-.216.128-.264s.071-.139.14-.272a3.175,3.175,0,0,1,.168-.3c.038-.057.09-.139.175-.276a2.013,2.013,0,0,1,.2-.276l.209-.228a1.09,1.09,0,0,1,.223-.2,1.011,1.011,0,0,1,.5-.16c.292,0,.439.135.439.4a2.841,2.841,0,0,1-.676,1.484,13.745,13.745,0,0,1-1.524,1.748l-.144.4a4.764,4.764,0,0,1,.872-.868,1.526,1.526,0,0,1,.9-.372.55.55,0,0,1,.365.112.382.382,0,0,1,.132.3.827.827,0,0,1-.389.708,2.13,2.13,0,0,1-.892.347,2.216,2.216,0,0,0,.232,1.016.26.26,0,0,0,.2.088.656.656,0,0,0,.328-.144,1.519,1.519,0,0,0,.34-.316c.091-.12.185-.258.28-.412l.2-.318.011-.017.049-.081.015-.024.022-.035a4.3,4.3,0,0,1,.495-1.021.344.344,0,0,1,.172-.148,1.473,1.473,0,0,1,.348-.028h.384a5.259,5.259,0,0,0-.432.736,4.344,4.344,0,0,0-.528,1.608c0,.2.074.3.22.3s.322-.142.525-.424a9.022,9.022,0,0,0,.652-1.1c.227-.439.366-.7.4-.764.2-.307.387-.464.568-.464l.384.008a.836.836,0,0,0,.152-.008,3.156,3.156,0,0,0-.644,1.059,3.73,3.73,0,0,0-.42,1.309c0,.159.054.239.16.239a.539.539,0,0,0,.284-.136,1.648,1.648,0,0,0,.308-.3,4.365,4.365,0,0,0,.276-.4l.2-.318.011-.017.049-.081c.109-.176.121-.176.124-.176.032,0,.048.051.048.152a.511.511,0,0,1-.088.288c-.657,1.1-1.214,1.656-1.656,1.656-.3,0-.447-.223-.447-.664a2.538,2.538,0,0,1,.032-.4c-.5.706-.982,1.064-1.432,1.064a.387.387,0,0,1-.324-.167.832.832,0,0,1-.124-.5,2.56,2.56,0,0,1,.083-.544c-.116.175-.211.31-.3.425a1.659,1.659,0,0,1-1.216.8.525.525,0,0,1-.514-.3Zm-7.46-1.932a2.421,2.421,0,0,0-.5,1.308c0,.165.065.248.192.248a.789.789,0,0,0,.488-.26,3.094,3.094,0,0,0,.5-.612c.327-.516.566-.906.712-1.16a.353.353,0,0,0-.376-.256,1.39,1.39,0,0,0-1.012.738Zm-2.62-2.668a20.165,20.165,0,0,0-.885,2.04,11.022,11.022,0,0,0,1.5-2.112,2.22,2.22,0,0,0,.223-.66c0-.1-.035-.156-.1-.156-.189.009-.435.308-.734.9Zm10,2.009a11,11,0,0,0,1.44-2.024,1.572,1.572,0,0,0,.24-.712c0-.1-.038-.144-.112-.144-.288.009-.817.978-1.561,2.889Zm-34.648,2.28a4.454,4.454,0,0,1,.664-2.144c.185-.319.4-.481.624-.481l.4.008h.08a1.683,1.683,0,0,0-.34.52c-.141.282-.247.5-.316.64a6.034,6.034,0,0,0-.236.584,1.872,1.872,0,0,0-.132.6c0,.156.049.231.152.231a.568.568,0,0,0,.292-.139,1.522,1.522,0,0,0,.309-.3,4.762,4.762,0,0,0,.267-.4l.257-.416a.688.688,0,0,1,.124-.176c.032,0,.048.05.048.148a.557.557,0,0,1-.08.284c-.194.327-.376.6-.54.828a3.044,3.044,0,0,1-.556.58.954.954,0,0,1-.568.247c-.291.018-.442-.192-.442-.606Zm62.392-3.264a.29.29,0,0,1-.207-.288.639.639,0,0,1,.192-.419.531.531,0,0,1,.368-.212.383.383,0,0,1,.264.08.253.253,0,0,1-.064.424h-.031a.455.455,0,0,0-.309.136.891.891,0,0,0-.212.279h0Zm-60.568,0a.29.29,0,0,1-.207-.288.639.639,0,0,1,.192-.419.531.531,0,0,1,.368-.212.383.383,0,0,1,.264.08.263.263,0,0,1,.088.2.267.267,0,0,1-.152.22h-.032a.452.452,0,0,0-.308.136.871.871,0,0,0-.212.279h0Zm-11.112,0a.29.29,0,0,1-.207-.288.634.634,0,0,1,.193-.419.531.531,0,0,1,.367-.212.384.384,0,0,1,.265.08.266.266,0,0,1,.088.2.27.27,0,0,1-.152.22h-.032a.452.452,0,0,0-.308.136.9.9,0,0,0-.212.279h0Zm-24.3-9.8-3.945-7.03-1.367,4.268a8.5,8.5,0,0,0-.459,1.211c-.091.332-.167.591-.224.771-.122.384-.321.579-.592.579h-.053a.37.37,0,0,1-.283-.167.464.464,0,0,1-.078-.322,1.77,1.77,0,0,1,.185-.556c.089-.167.158-.294.2-.381s.08-.167.131-.283l.371-.86,4.014-12.021L52.7,157.9l4.19-8.34L61.9,164H56.664l-2.422-7.461-3.749,7.811h0Zm14.9-.064-3.236-7.065h2.876l1.625,3.415,1.917-3.707,2,3.751.908-2.057a7.249,7.249,0,0,0,.4-1.05.818.818,0,0,1,.156-.381.288.288,0,0,1,.209-.085.237.237,0,0,1,.193.088.271.271,0,0,1,.074.156.843.843,0,0,1-.01.127,1.356,1.356,0,0,1-.054.191c-.031.088-.079.207-.146.352l-2.735,6.264-2.121-4.054-2.05,4.056h0ZM111.4,162.3a6.384,6.384,0,0,1-1.562-4.433v-7.686h4.991v13.174a11.7,11.7,0,0,0,1.655.107,5.076,5.076,0,0,0,1.836-.361,4.316,4.316,0,0,0,1.635-1.133,7.039,7.039,0,0,0,1.543-4.854v-5.293a6.568,6.568,0,0,0-.044-.693c-.03-.263-.044-.447-.044-.547,0-.337.161-.508.479-.508.284,0,.429.175.429.518l-.059,1.211v5.839a6.7,6.7,0,0,1-1.66,4.7,5.86,5.86,0,0,1-4.512,1.845,5.976,5.976,0,0,1-4.678-1.882Zm53.172,1.16a2.316,2.316,0,0,1-.825-1.886,2.194,2.194,0,0,1,.819-1.752,3.365,3.365,0,0,1,2.2-.691,4.273,4.273,0,0,1,1.714.348V157.74a3.789,3.789,0,0,0-1.019-.165,6.193,6.193,0,0,0-.745.038,3.908,3.908,0,0,0-.578.114,2.2,2.2,0,0,0-.9.445.5.5,0,0,1-.323.165.309.309,0,0,1-.222-.073.221.221,0,0,1-.076-.162.416.416,0,0,1,.031-.162.462.462,0,0,1,.121-.149,2.212,2.212,0,0,1,.635-.329,5.2,5.2,0,0,1,1.847-.349c1.87,0,3.082.453,3.6,1.346a3.143,3.143,0,0,1,.343,1.568v3.98h-2.7v-.419a3.494,3.494,0,0,1-3.91-.121Zm2.075-3.853v4.036a.313.313,0,0,0,.07.006h.076a2.788,2.788,0,0,0,1.688-.616v-3.059a3.651,3.651,0,0,0-1.593-.388,1.356,1.356,0,0,0-.231.025Zm-8.912,4.081c-.328-.184-.489-.361-.489-.54a.265.265,0,0,1,.067-.175.217.217,0,0,1,.175-.079.252.252,0,0,1,.177.064h0l.154.141a2.726,2.726,0,0,0,1.848.578c.53,0,.876-.111,1.028-.33a.306.306,0,0,0,.064-.181.472.472,0,0,0-.035-.178.792.792,0,0,0-.149-.209,3.326,3.326,0,0,0-.323-.3l-.559-.451a11.142,11.142,0,0,1-1.9-1.752,2.066,2.066,0,0,1-.47-1.256,1.636,1.636,0,0,1,.743-1.353,3.262,3.262,0,0,1,1.986-.571,3.8,3.8,0,0,1,1.352.2,2.955,2.955,0,0,1,.7.359.422.422,0,0,1,.2.3c0,.181-.073.273-.216.273a.281.281,0,0,1-.187-.073c-.057-.049-.171-.131-.339-.247a2.055,2.055,0,0,0-.673-.276,3.35,3.35,0,0,0-.78-.1.869.869,0,0,0-.511.114.3.3,0,0,0-.149.226.509.509,0,0,0,.044.209.978.978,0,0,0,.166.232,5.342,5.342,0,0,0,.9.78c.409.3.759.577,1.041.825a5.1,5.1,0,0,1,.667.692,1.9,1.9,0,0,1,.437,1.156,2.154,2.154,0,0,1-.216,1,2.08,2.08,0,0,1-.616.715,3.646,3.646,0,0,1-2.254.641,3.771,3.771,0,0,1-1.868-.429Zm-8.608-.229a2.316,2.316,0,0,1-.825-1.886,2.194,2.194,0,0,1,.819-1.752,3.368,3.368,0,0,1,2.2-.691,4.281,4.281,0,0,1,1.714.348v-1.74a3.8,3.8,0,0,0-1.019-.165,6.216,6.216,0,0,0-.746.038,3.911,3.911,0,0,0-.578.114,2.192,2.192,0,0,0-.9.445.507.507,0,0,1-.324.165.309.309,0,0,1-.222-.073.224.224,0,0,1-.076-.162.4.4,0,0,1,.032-.162.439.439,0,0,1,.121-.149,2.18,2.18,0,0,1,.634-.329,5.2,5.2,0,0,1,1.847-.349c1.87,0,3.082.453,3.6,1.346a3.143,3.143,0,0,1,.343,1.568v3.98h-2.716v-.419a3.5,3.5,0,0,1-3.91-.121Zm2.075-3.853v4.036a.311.311,0,0,0,.07.006h.076a2.8,2.8,0,0,0,1.689-.616v-3.059a3.658,3.658,0,0,0-1.594-.388,1.355,1.355,0,0,0-.23.026Zm-18.027,2.335v-4.722H135.9v6.214a.342.342,0,0,0,.158.032h.21a1.931,1.931,0,0,0,1.206-.686,3.911,3.911,0,0,0,.393-.457v-5.1h2.73V164h-2.73v-.977a3.278,3.278,0,0,1-2.457,1.1,1.953,1.953,0,0,1-2.225-2.177ZM94.1,163.689c-.328-.184-.489-.361-.489-.54a.265.265,0,0,1,.067-.175.217.217,0,0,1,.175-.079.252.252,0,0,1,.177.064h0l.154.141a2.726,2.726,0,0,0,1.848.578c.53,0,.876-.111,1.028-.33a.31.31,0,0,0,.064-.181A.472.472,0,0,0,97.1,163a.792.792,0,0,0-.149-.209,3.323,3.323,0,0,0-.323-.3l-.559-.451a11.141,11.141,0,0,1-1.9-1.752,2.066,2.066,0,0,1-.47-1.256,1.636,1.636,0,0,1,.743-1.353,3.258,3.258,0,0,1,1.986-.571,3.8,3.8,0,0,1,1.352.2,2.956,2.956,0,0,1,.7.359.422.422,0,0,1,.2.3c0,.181-.073.273-.216.273a.281.281,0,0,1-.187-.073c-.057-.049-.171-.131-.339-.247a2.055,2.055,0,0,0-.673-.276,3.348,3.348,0,0,0-.78-.1.869.869,0,0,0-.511.114.3.3,0,0,0-.149.226.509.509,0,0,0,.044.209.926.926,0,0,0,.166.232,5.341,5.341,0,0,0,.895.78c.409.3.759.577,1.041.825a5.1,5.1,0,0,1,.667.692,1.9,1.9,0,0,1,.437,1.156,2.154,2.154,0,0,1-.216,1,2.085,2.085,0,0,1-.616.715,3.646,3.646,0,0,1-2.254.641,3.771,3.771,0,0,1-1.877-.439ZM81.85,161.943v-4.722h2.716v6.214a.346.346,0,0,0,.159.032h.209a1.927,1.927,0,0,0,1.206-.686,4.124,4.124,0,0,0,.394-.457v-5.1h2.729V164H86.546v-.977a3.281,3.281,0,0,1-2.457,1.1,1.953,1.953,0,0,1-2.228-2.177Zm-7.719,1.231a3.192,3.192,0,0,1-1.111-2.488,3.417,3.417,0,0,1,1-2.527,3.841,3.841,0,0,1,2.819-1.053,3.435,3.435,0,0,1,2.367.857,3.1,3.1,0,0,1,1.035,2.418c0,.139,0,.289-.013.457H76.053v2.723a4.9,4.9,0,0,0,.971.088,2.757,2.757,0,0,0,1.949-.755,2.345,2.345,0,0,0,.235-.26.4.4,0,0,1,.3-.178c.164,0,.247.077.247.229a.655.655,0,0,1-.222.407,3.679,3.679,0,0,1-2.749,1.028,3.864,3.864,0,0,1-2.642-.94Zm1.911-5.535v2.736H77.8V157.7a3.344,3.344,0,0,0-.933-.121,3.864,3.864,0,0,0-.815.066ZM127.568,164H124.85v-8.982h2.73v4.844l2.672-1.936a3.887,3.887,0,0,0,.61-.553c.151-.176.281-.266.387-.266.189,0,.285.079.285.235a.487.487,0,0,1-.216.355l-1.618,1.25L132.035,164H129.2l-1.619-3.58V164h0Zm17.825,0h-2.729v-6.779h2.73v1.993a4.915,4.915,0,0,1,.942-1.6,1.458,1.458,0,0,1,1.013-.51.663.663,0,0,1,.454.148.436.436,0,0,1,.168.334.707.707,0,0,1-.05.292.592.592,0,0,1-.133.184.5.5,0,0,1-.324.158.947.947,0,0,1-.355-.05.88.88,0,0,0-.349-.089.639.639,0,0,0-.387.244,2.78,2.78,0,0,0-.451.677,5.066,5.066,0,0,0-.526,2.285V164h0ZM14.322,161.146a107.352,107.352,0,0,1,0-107.292c.768,1.332,1.578,2.668,2.408,3.973a103.35,103.35,0,0,0,.177,99.067C16.018,158.282,15.148,159.713,14.322,161.146Zm186.356,0c-.9-1.558-1.846-3.106-2.811-4.6a103.327,103.327,0,0,0,.175-98.358c.906-1.414,1.794-2.871,2.636-4.331a107.354,107.354,0,0,1,0,107.29h0Zm-109.422-2.72a9.247,9.247,0,0,0-.343-1.536l-.292-.863a1.345,1.345,0,0,1-.076-.4.789.789,0,0,1,.063-.314.665.665,0,0,1,.2-.254,1.282,1.282,0,0,1,.825-.241,1.323,1.323,0,0,1,.813.219.694.694,0,0,1,.285.574,1.319,1.319,0,0,1-.076.387l-.2.572a11.188,11.188,0,0,0-.47,1.84.369.369,0,0,1-.248.33.328.328,0,0,1-.1.019.353.353,0,0,1-.381-.333ZM195.377,53.562a104.242,104.242,0,0,0-34.232-34.178c1.4-.859,2.827-1.691,4.253-2.477.738.472,1.48.961,2.207,1.452A108.1,108.1,0,0,1,196.641,47.4c.413.611.825,1.236,1.226,1.856-.791,1.45-1.629,2.9-2.489,4.31Zm-176.175,0h0c-.791-1.3-1.563-2.625-2.3-3.954.475-.743.964-1.485,1.452-2.207A108.1,108.1,0,0,1,47.4,18.359c.721-.487,1.463-.976,2.207-1.452,1.355.747,2.715,1.537,4.043,2.349a104.244,104.244,0,0,0-34.45,34.3ZM107.291,4.175a103.039,103.039,0,0,0-49.363,12.6c-1.331-.831-2.7-1.659-4.074-2.453a107.333,107.333,0,0,1,107.5.121c-1.424.825-2.849,1.7-4.235,2.588A103.023,103.023,0,0,0,107.291,4.175Z" transform="translate(3.04 2.04)"/></g><path id="firstBalloon" class="mweus-ukurasa-brand-logo-color" d="M8.25,40.445a.243.243,0,0,1-.243-.243V37.044A.243.243,0,0,1,8.25,36.8H8.8a1.442,1.442,0,0,1,.4-.9.479.479,0,1,1,.271,0,1.441,1.441,0,0,1,.4.9h.9l.368-2.087a.119.119,0,0,1,.023-.052.122.122,0,0,1,0-.089l-1.8-5.739c-1.109-1.261-2.123-2.35-2.123-2.35s-5.552-6.6-5.9-8.714a11.234,11.234,0,0,1-1.077-7.9,3.089,3.089,0,0,1,.247-1L.538,8.9A7.924,7.924,0,0,1,.994,7.754,10.81,10.81,0,0,1,2.789,5a2.353,2.353,0,0,1,.24-.3l.008.023A13.892,13.892,0,0,1,4.714,3.166c.036-.06.057-.088.057-.088l.01.036A14.809,14.809,0,0,1,8.354,1.076a2.082,2.082,0,0,1,.254-.016h.006c.073,0,.069.016.069.016a3.606,3.606,0,0,1,2.946-.6l.008-.007v.01l.017.006a3.3,3.3,0,0,1,2.98-.246h0A3.286,3.286,0,0,1,17.4.665c2.162-.324,2.833.833,2.833.833h.028V1.486l.014.006c.246-.028,1.512-.052,3.308,1.966V3.444a1.832,1.832,0,0,1,.294.268A8.977,8.977,0,0,1,26.4,6.8a7.129,7.129,0,0,1,1.435,4.939c-.1,3.3-.376,3.7-.376,3.7a27.084,27.084,0,0,1-4.511,8.553c-.672.672-2.681,3.084-4.132,4.865L17,34.684a.12.12,0,0,1,.009.03l.368,2.087h.716a.71.71,0,0,1,.225-.3.479.479,0,1,1,.27,0,.71.71,0,0,1,.225.3h1.1a.243.243,0,0,1,.243.243V40.2a.243.243,0,0,1-.243.243Zm7.645-5a.47.47,0,0,1-.344.449,1.441,1.441,0,0,1,.4.9h1.174l-.361-2.045a.122.122,0,0,1,0-.02H11.393a.122.122,0,0,1,0,.02L11.03,36.8h.989a.711.711,0,0,1,.225-.3.48.48,0,1,1,.271,0,.711.711,0,0,1,.225.3h2.136a1.442,1.442,0,0,1,.4-.9.47.47,0,1,1,.615-.449Zm.227-.954h.76c-.053-1.864,1.649-5.129,1.908-5.615-.648.8-1.181,1.462-1.431,1.785Zm-.226,0c-.272-.586,1.247-3.437,1.448-3.809a1.934,1.934,0,0,0-.136.189,7.924,7.924,0,0,1-2.245,2.659,1.405,1.405,0,0,1-.09.727.243.243,0,0,1,.178.234Zm-3.672,0h.763a.243.243,0,0,1,.111-.2,2.973,2.973,0,0,1-.015-.751,3.859,3.859,0,0,1-1.745-2.37c-.127-.163-.264-.334-.408-.51.106.234,1.432,3.183,1.294,3.834Zm-.917,0h.714l-1.1-3.839c-.469-.574-1.013-1.208-1.538-1.8.211.353,2.054,3.5,1.92,5.643Zm2.318-.516a.516.516,0,0,0,.082-.222,2.044,2.044,0,0,1-.325-.092c.049.194.149.391.242.313Z" transform="translate(1117.259 -441.995)"><animateTransform attributeType="xml" attributeName="transform" begin="0" dur="30000ms" fill="freeze" from="1117.259 -441.995" repeatCount="indefinite" to="1020 -500" type="translate"/></path><path id="thirdBalloon" class="mweus-ukurasa-brand-logo-color" d="M5.093,25a.15.15,0,0,1-.15-.15V22.893a.15.15,0,0,1,.15-.15h.4a.622.622,0,0,1,.2-.333.3.3,0,1,1,.167,0,.622.622,0,0,1,.2.333h.61l.227-1.29a.074.074,0,0,1,.014-.032.075.075,0,0,1,0-.055L5.787,17.819c-.686-.779-1.312-1.452-1.312-1.452S1.043,12.289.829,10.981A6.943,6.943,0,0,1,.163,6.1a1.909,1.909,0,0,1,.153-.618l.01.021A4.9,4.9,0,0,1,.608,4.79a6.681,6.681,0,0,1,1.109-1.7,1.454,1.454,0,0,1,.149-.19v.014A8.586,8.586,0,0,1,2.9,1.952.622.622,0,0,1,2.938,1.9l.006.023A9.152,9.152,0,0,1,5.158.663a1.287,1.287,0,0,1,.157-.01h0c.045,0,.042.01.042.01A2.229,2.229,0,0,1,7.182.292h0v0L7.2.3A2.041,2.041,0,0,1,9.039.146h0a2.031,2.031,0,0,1,1.709.261C12.087.209,12.5.924,12.5.924h.027c.152-.017.934-.032,2.045,1.215V2.13a1.132,1.132,0,0,1,.182.166,5.548,5.548,0,0,1,1.555,1.9A4.406,4.406,0,0,1,17.2,7.253a6.96,6.96,0,0,1-.233,2.284,16.739,16.739,0,0,1-2.788,5.286c-.415.415-1.657,1.906-2.554,3.007L10.5,21.43a.074.074,0,0,1,.006.019l.227,1.29h.493a.287.287,0,0,1-.124-.236.3.3,0,1,1,.593,0,.287.287,0,0,1-.125.236H12.3a.15.15,0,0,1,.15.15V24.84a.15.15,0,0,1-.15.15Zm4.725-2.863a.291.291,0,0,1-.213.278.622.622,0,0,1,.2.333h.779l-.223-1.264a.076.076,0,0,1,0-.012H7.035a.075.075,0,0,1,0,.012l-.223,1.264h.662a.287.287,0,0,1-.124-.236.3.3,0,1,1,.593,0,.287.287,0,0,1-.125.236H9.242a.622.622,0,0,1,.2-.333.291.291,0,1,1,.38-.278Zm.14-.815h.47a9.669,9.669,0,0,1,1.179-3.47c-.4.492-.73.9-.884,1.1Zm-.14,0c-.168-.362.771-2.124.9-2.354a1.2,1.2,0,0,0-.084.117,4.9,4.9,0,0,1-1.387,1.644.868.868,0,0,1-.055.449.15.15,0,0,1,.11.145Zm-2.269,0H8.02a.15.15,0,0,1,.068-.126,1.837,1.837,0,0,1-.009-.464A2.385,2.385,0,0,1,7,19.262c-.078-.1-.163-.206-.252-.315a9.287,9.287,0,0,1,.8,2.37Zm-.567,0h.441l-.678-2.373c-.29-.355-.626-.747-.95-1.115a7.894,7.894,0,0,1,1.187,3.488ZM8.415,21a.319.319,0,0,0,.051-.137,1.263,1.263,0,0,1-.2-.057c.03.12.092.242.149.194Z" transform="translate(1220.259 -441.995)"><animateTransform attributeType="xml" attributeName="transform" begin="0" dur="40000ms" fill="freeze" from="1220.259 -441.995" repeatCount="indefinite" to="1300 -500" type="translate"/></path><path id="secondBalloon" class="mweus-ukurasa-brand-logo-color" d="M32.017,65H13.282a.391.391,0,0,1-.391-.391V59.536a.391.391,0,0,1,.391-.391h1.029a1.6,1.6,0,0,1,.51-.867.771.771,0,1,1,.435,0,1.61,1.61,0,0,1,.51.867h1.587l.591-3.353a.279.279,0,0,0,.033-.228l-2.892-9.221c-1.772-2.013-3.4-3.758-3.412-3.775-.089-.106-8.927-10.642-9.479-14a18.039,18.039,0,0,1-1.73-12.7,5.045,5.045,0,0,1,.4-1.607l.027.054a12.862,12.862,0,0,1,.733-1.849A17.579,17.579,0,0,1,4.506,8.045a3.776,3.776,0,0,1,.385-.485L4.9,7.6A22.3,22.3,0,0,1,7.6,5.1a1.52,1.52,0,0,1,.091-.141l.015.059a23.781,23.781,0,0,1,5.744-3.28,3.265,3.265,0,0,1,.409-.025l.01-.006v.007c.079,0,.1.012.109.021A6.533,6.533,0,0,1,17.412.571a4.176,4.176,0,0,1,1.3.2l.013-.012v.02h.028A5.3,5.3,0,0,1,23.54.393h.008A6.119,6.119,0,0,1,25.176.179a4.416,4.416,0,0,1,2.817.9A7.967,7.967,0,0,1,29.167.985c2.52,0,3.369,1.416,3.377,1.43h.007l.039-.006V2.4h.023a1.857,1.857,0,0,1,.2-.01c.69,0,2.57.309,5.117,3.169l.005-.023a2.918,2.918,0,0,1,.473.431,14.534,14.534,0,0,1,4.031,4.964,7.845,7.845,0,0,1,1.215,1.982,13.4,13.4,0,0,1,1.09,5.954c-.165,5.235-.6,5.932-.6,5.938A34.788,34.788,0,0,1,42.52,29.13,44.886,44.886,0,0,1,36.9,38.545c-1.013,1.014-4.065,4.658-6.639,7.818l-2.916,9.373a.2.2,0,0,1,.015.049l.591,3.354h1.282a.751.751,0,0,1-.323-.614.771.771,0,0,1,1.542,0,.749.749,0,0,1-.324.614h1.9a.39.39,0,0,1,.39.39V64.61a.39.39,0,0,1-.4.39Zm-7.208-8.2a.765.765,0,0,1,.078,0,.75.75,0,0,1,.127,1.471,1.607,1.607,0,0,1,.509.867h2.026l-.579-3.286a.12.12,0,0,1,0-.032H18.331a.181.181,0,0,1,0,.032l-.58,3.286h1.722a.746.746,0,0,1-.324-.613.771.771,0,0,1,1.541,0,.746.746,0,0,1-.324.613h3.7a1.611,1.611,0,0,1,.51-.867.756.756,0,0,1,.231-1.475Zm5.41-10.389c-1.034,1.27-1.893,2.343-2.3,2.869l-1.988,6.154h1.22c-.084-3.019,2.749-8.414,3.067-9.019Zm-2.324,2.9a3.138,3.138,0,0,0-.219.3,12.712,12.712,0,0,1-3.607,4.274,2.206,2.206,0,0,1-.145,1.167.393.393,0,0,1,.287.376h1.356c-.437-.928,2.043-5.584,2.328-6.112Zm-10.307-.039h0c.236.521,2.3,5.126,2.08,6.16h1.227a.39.39,0,0,1,.177-.328,4.8,4.8,0,0,1-.024-1.207c-.53-.255-1.865-1.138-2.8-3.808-.209-.252-.429-.528-.661-.812Zm-2.479-2.9h0c.339.563,3.3,5.616,3.085,9.067h1.147l-1.762-6.17C16.916,48.455,16.085,47.48,15.109,46.37Zm6.42,7.735c.066.264.191.531.319.531a.108.108,0,0,0,.07-.028.821.821,0,0,0,.133-.355,3.3,3.3,0,0,1-.522-.148Zm1.5-21.643v.053h.092v.065l.052.026-.026-.13.066-.013.078.026.026-.078.094.026.04.079-.014-.04.066-.118.013.04.118.013h.04V32.37l.065.04.013-.04H23.8l-.026-.078.092.014.039-.04-.052-.026.065-.013.027.026.078-.079.077.051h.118v-.078l-.052-.014.025-.065.079.013-.052.027.065.039V32.1h.081l.04.04V32.2h.052l-.052-.17.144-.092.052.026.013-.091-.013-.04.1.026.065-.065v-.1l.04-.04h.04V31.57h.04L24.9,31.5v-.04h.078l.013.052.04-.1L24.98,31.4l.052-.013-.026-.092v-.04h.1l.026-.065v-.04h.053l.078-.17.065.04h.04v-.052l-.078-.04.1-.2-.1-.039.013-.04.078.054.118-.118v-.079l.078-.026-.026-.052H25.6v-.04h.052v-.144l-.039-.013-.065-.04.078.131-.158.065.014-.1.013.052h.074v-.052l-.065-.026h-.065v.078H25.4l.026.092-.066.04-.052.052-.052-.052-.039.013.026.1-.04.04-.078-.078-.014.052.052.013-.026.066-.078.039v.037H25l-.013.052-.04-.1-.17-.052-.066.013.026.092h-.092l-.1-.078H24.5v-.066l-.118.092-.078-.026-.04.013.052.079-.1.052.065.013-.052.079-.052-.026-.013.078-.144-.026-.04-.039-.013-.118-.014.039-.04-.013-.039.092.026.118.052.013-.092.04H23.8V31.02h-.04l-.04.065.079.026-.066.04-.065-.04.027-.052-.04.013-.065-.026v-.09l-.04-.04h-.065v.1l-.066.026H23.33v.078h-.053v.052h-.109v-.04L23.1,31.1l.014-.039-.014-.04-.065.026-.013-.052L23,31.071l-.04-.13-.078-.013.052-.014.026-.065-.052-.014-.04.079-.013-.04-.065-.065-.026.026-.013-.052-.065-.026.04.065-.131.052.144.118.118.04-.026.065-.118-.026h-.04v-.078h-.052l-.026.13-.118.027.013-.04-.052-.013.026.119-.052-.027v-.065l-.1-.052.052.092-.013.065-.04-.078-.065.026-.144-.04.065-.065.04.013-.066-.039.014-.04L22.1,30.98l.112-.09.066-.118-.014-.04-.013.04-.04-.014v.1l-.052-.025-.1.052-.04-.014.118-.092V30.76h-.065l-.013.052H21.9l-.04.039.026.026-.065.04h-.052l-.079.026-.078-.026L21.557,31l-.014-.039-.039-.04-.066.04-.052-.079-.092.065-.052-.078H21.2V30.8l-.04.013h-.04v-.078h-.052l-.013.052-.13-.026-.052-.079-.065.027-.04.078-.026-.052-.065.026.026-.092-.04.013-.052-.052-.026.027-.079-.053-.052.026-.039-.013.026.052-.092.04L20.3,30.63l-.04.066.052.1-.013.065h-.04v.065l-.065.04.013.04-.065.039-.092-.144-.078-.039-.026-.066.026-.052-.065-.013h-.04V30.68l.052-.013-.026-.052h-.053l.052-.078-.039-.092-.014.078-.092-.026-.065-.065.026-.026-.158-.118-.013-.1-.13.052.039.065v.04h.04l.118.118-.052.052.052.026-.052.026.052.013.026.118.052.078.052.052-.026.027.052.013.044.081h.065V31h.053v.118l.1.157.04.04.025-.026.04.092-.026.052.144.223h.04v.039l.17.092.065.092v.052l.066.04.065.065V32.1l.118.079L20.8,32.1l.039.065-.052.092.184-.026.04.1.078-.026.04-.013v.092h.039l-.013-.04V32.3h.04l.039.066.066-.04.013.065.04-.013.026.052.013-.131.066-.026.039.014-.052.078.158.065v-.052h-.04v-.026h.066v.04l.065.04.039.013v-.04h.092l.13.027-.014.039.04.092.013-.078.066-.027h.091v.066l.04-.014.079.026-.014-.039.014-.04.052.078.013-.039.065-.013.053.026.039-.013v.039h.04l.082-.1.013.052.2.026.026-.026.052.052h.039V32.5l-.013-.04.052.027.051-.026Zm-.157-2.2h0l.052.079-.014-.04.144-.04.288.078.04-.065.04.014.078-.079h.04v-.04l.039.014-.039-.065.026-.092h.092l.039-.04-.039-.013-.04.013v-.04h-.079v-.039l-.013-.04.1.052.014-.065-.066-.065-.052.052-.1-.026-.078.026H22.61l-.288-.052-.078.026h-.053l-.183-.052-.079.026-.13-.079.013.04-.039.065-.026-.078-.014.04h-.052l.079.1v.092l.065-.027.013.04-.065.065-.026-.025.026.052.1-.052v.052l.1-.027h.052l.1-.025.171.039-.04.014.026.052.1-.026.2.052V30.2h-.038l.027.052.1-.078h.039v.052h.053l.013.078.013-.039.065-.013Zm-4.425-1.6.04.04-.026.025.026.079.183.13-.052.1.026.052.118.065.1-.028V29.1l-.078-.052.013-.04-.026-.065h.052V29h.066l-.014-.04.026-.052-.052-.13v-.04h-.039l-.066-.065.026-.026-.026-.078-.157-.157V28.35l-.079-.04.04-.065.078.026.014-.04-.118-.065-.04-.04.026-.026-.092-.04-.052.027-.013-.04-.079-.04.026-.144-.039.014-.04-.04.026-.026-.052-.079v-.078l.065.04.039-.079-.118.026-.013-.078-.092.026-.092-.013.052-.014-.052-.17L18,27.356l-.052.025-.04-.091h-.052l.026-.079v-.042h-.039l-.065-.118.052-.013-.013-.079L17.8,27h-.026l.052-.1-.078-.052.026-.053-.078-.013-.079-.118v-.13L17.6,26.5l.052-.052-.118-.04h-.066v-.039l.04.013-.013-.04V26.3h-.04l-.013-.065.053-.053-.014-.065-.013.079h-.052v-.1l.052-.013-.052-.014-.04-.13-.052.1-.04-.092-.04.014-.039-.1.065-.027.052.027.04.013v-.04h-.079l-.039-.078-.053.026L17.1,25.76l-.027.065.079.1-.026.053.078.13.04-.013.065.091-.065.014-.013-.052-.052.013.052.052v.1l.052.052v.078l.04.04.065-.04v.092h.052v.052h-.1v.092l.065.04.04.065.065.065.04-.039-.065-.04-.066-.065.027-.026-.04-.014-.026-.052.078.026-.013-.039.052-.013v.094l.1.13-.052.079.013.039.092-.026v.057h-.118l-.039-.014.13.066-.026.065.052.13.014.04h-.04v-.04l-.078-.052v.052l.157.157-.052.013.052.143h.078l-.052-.222h.052v.04l.053.052-.027.026.04.065.052-.026-.013.04.078.13-.026.066-.092-.027-.118-.092.052.079-.026.052.158.1-.026.079.1.369.092.118h.041v.078l-.052.013.039.013.053.079.052-.078h0l.077.052h.04v.131Zm8.119.182-.092.118-.026.144.067-.027h.04v-.118l.04-.04.157-.026.065-.1-.052-.013.039-.014.066-.1.065.026L27,28.65l-.1-.1V28.5l.039.013.1-.052h.039V28.4l.158-.065-.052-.014.052-.118-.065-.013L27.1,28.1l.039-.04.026.026.013-.052.236-.091-.092-.04-.026.026-.04-.04.158-.052-.053-.026.066-.065h.052l.039.013-.026-.078.026-.026-.039-.065h.065v-.066l.13-.1-.025-.052V27.3H27.57l-.04-.079-.039.1.13.039-.17.04-.065.065v.066h-.04l.014.039-.027.052-.065.04-.144.3.026.052-.052.013-.052.171-.1.1v.078l-.052.079-.13.065V28.6l-.158.184v.065Zm-6.628-.052h0l.052.052.04-.012L20,28.783V28.73l.092-.013-.013-.04.039-.013-.013-.04.026-.065.078-.04V28.48h.05v-.053h.04l.039-.091.04.013.1-.078v.052l.079-.052.078.052v-.052l.052.025.013-.118-.04-.039-.052.026-.118-.026-.013-.052-.052.025H20.38l-.118.027-.026-.066.04-.013.04.013-.026-.13v-.052l.078-.052-.04.013h-.065v-.039l-.078.026.078-.157-.013-.04-.065.131-.092.052-.144-.026.026-.065-.014-.04-.065.026-.013-.052-.013.092-.04-.014-.1.131-.052-.079-.04.04.026.026-.039.013-.04.04.026.026-.04.065-.039-.039.025-.026L19.5,27.93l-.026.119v.039h-.052v.055h-.065l-.026-.079-.04.119.079.157-.052.131.052.052-.052.052.052.052-.026.026.065-.04.052.026.052-.078.026.052.026-.052.04.065-.026.052.04-.013.039.065-.1.026.092.066.052-.079.014.04-.014.04.052-.027-.013-.039.04-.013.026.079h.039v-.079l.079.014-.052.013v.052h.039l.025-.025Zm5.514-.144v.039h.118l.041-.067.04.013h.065v-.052h.051l.026-.065-.078-.053.039-.013.04.013v-.039h.04l-.014.039v.04h.052l-.026-.092v-.065H25.8V28.4l-.092-.039.052-.026-.091-.04-.052.026-.013-.039-.04.013-.052-.026.014-.04-.04.014-.026-.052-.026.078-.079-.026H25.3l-.013-.04-.04.014-.13-.052-.079.025-.078-.025-.17.052v.051h.039l.04.066.04.039h.1l.065-.013v-.04H25.2l.1.026v.029h-.04v.065l.04-.014.013.079.065-.026.013.092-.026.026.039.039.013-.092.1-.039.013.052.066-.026v.052h-.066l-.039.065ZM24.116,27.22l.078.144h0l.031-.011h.04v-.039h.026v.039h.052l-.1-.236h-.066l-.065-.065.014-.039.209.13h.04v.075l.052-.014-.026-.092-.078-.039.052-.026-.065-.04-.079.026-.092-.065V26.9H24.1l.013-.04-.04.013L24,26.788l.026-.065-.065-.026h-.039v-.04l-.289-.157.052-.026-.039-.013h-.171v.065l-.091-.013-.157.052h-.184l-.13.026-.236-.052-.131.026-.078-.026-.052.026-.13-.1-.052.027-.04-.04.027-.026-.066.04-.078-.131-.052.026-.079-.026-.052.053-.052-.027-.04.014.053.026-.079.026.026.078-.039-.013-.04.078h-.1v-.078l-.2.1h-.04v.08l-.052.013.079.053-.052.091-.131.026-.052.092v.04h-.04l-.026-.026-.052.052h-.04v.078l-.092.027-.065.091-.013.04h.039V27.3l.092-.052h.04v.04L21,27.315l.039.04.079-.1.157.052.053-.027.091.066V27.3h-.052v-.052l.066-.026.013.052.1-.026.013-.052.013.092.04-.014.092.053.013-.053.058.025.13-.13.04.013v-.039h.04l.04-.066.144-.092h.039v.066l.04-.014.04.079.078-.04v-.04h.078l.027.223.065-.04H22.6v.04l.1.065v-.065l.053-.053-.04-.013-.052.078-.014-.065v-.119h.118v-.026h-.039V27l.078-.053v.066h.052l.013-.052.039.118.014.039-.079-.026-.013.065.078.04.014-.052.052.1.13-.026.04.013-.04-.092-.065.014.052.026-.078.013.04-.1.078.026.04-.039v-.144l.065.026.052-.026.144.026.013.078.1-.052.026.078h.039v.053l.092.052h.04v.052l.065-.026.052.026.052-.1h.066l.052.1Zm1.742-4.375h.091V22.9L26,22.884l-.066-.065H25.78l-.065-.092.013-.066h.04v.053l.092-.027.078.027.04.039-.026.026.065.04.026-.079.013.053.13-.014-.04-.065-.065.026v-.079h.039l.04.014-.026-.078.065-.013.131.1.157.027.079.052.039-.014-.065-.065-.026.026-.092-.065L26.5,22.6l-.04-.04-.026.026-.065-.026v-.052h.05l-.039-.078h-.066v-.079l-.065.027-.092-.014.053-.026-.04-.014h-.052l-.014.053.052.013-.065.013-.04-.1-.144-.026v.055h-.065V22.28H25.7l-.314-.157-.026.052-.014-.065-.065-.013-.078.026L25,22.1l.014-.053.026.026h.418l.053.026.052-.026.288.026.026.026.04-.039-.354-.17h-.1v.026h.065v.052l.078.04-.118.013-.052-.052-.052.052-.078-.026H25.15l-.026.026-.078-.052h-.13l-.144-.092.026-.078v-.04h.04l-.014.04.144.039h.057l.04-.065-.092-.013-.04-.066.118-.065-.039.065.194.066.014-.04.026-.026-.04-.04h-.118v-.04l.17-.091h.079l.262-.21h.13l.04.013V21.3l.1.3.2.2.157.052h.262l.236-.1.118-.146.1-.314.065-.066.078.027.079-.027.052.053.026-.026H27.3l.078.078h.065v.078h.04l-.04.328-.078.1v.04h-.052v.05l.222-.182h.037v-.052h.1l.014-.078.013.052h.118l.1.052L28,21.668l.118-.17-.026-.079-.144-.144-.1-.026-.066-.091.04.013.013-.052-.066-.026H27.7V21.04l-.065.026-.078-.026-.079-.079-.026.026-.052-.026.013-.039-.092-.092h-.17l-.026-.092.04-.04.026.027h.04v-.053l-.092-.026h-.118v-.065l.183-.1-.13-.027.04-.013.065-.013-.065-.04v-.025l.13.052.04-.078-.158-.04.04-.04.026.03.013-.052-.1-.04.065-.039h.092v-.04l.04.014h.065v-.053l.144-.026.078.026.014-.091-.04-.04-.078.078L27.35,20h-.039v-.052L27.1,19.9l-.014-.052-.026.026H27v.052h-.052V19.87h-.092L26.8,20l-.027-.078L26.722,20h-.045v-.052h-.118l-.1.131L26.428,20l-.079.1-.013-.039-.065-.013-.13.079.014-.04-.014-.04-.17.079.078-.157.1-.04-.014-.039-.052.052H26.01l-.04.039.026.026-.052.079-.2.118-.026-.1-.052.079-.052-.026-.13.078h-.066v.07l-.039.04-.027-.026-.078.052.052-.079h.04v-.039l.092-.118-.026.026H25.3l-.039.039v.045h-.04l.013-.04-.065-.092-.04.118H25.1v-.039h-.039l.013.039-.065.04-.04-.065.052-.144h-.065l-.1.078-.027-.052-.025.052h.039v.052l.052.013-.052.013.026.065-.04.013L24.8,20.3v-.039h-.079l-.013-.079-.1.052-.053-.078-.157.1-.118.065v.066h-.052v.065l-.04-.014-.144.026-.079.223.092.039.027-.026.1.052.065-.026v.079h-.092l-.04.013.053.026-.079.052v.04h.04l.039-.014.052.079v.052l.053.078-.079.027.052.078-.052.013.026.2v.1L24.2,21.6l.079.026-.1.052.04.013h.157l.144.053.013.078.052-.026.026-.079.052.027-.039.065h.053v.039H24.6l.013.04-.065.013.04.065v.065h-.052v.144l.052.013.052.119v.065h.052v.039h.026l-.026-.052.026-.052.04.014.065-.014-.052-.026.1-.013-.025.066.039-.014.013.052.144.026.039.079.118.052.053-.026.039.078h.2l.026-.026h.04v.066l-.04-.014-.052.026v.026h.065V22.8h.052v.039l.052.027-.052-.079v-.039h.092l.013.039.118.092.053-.026Zm-6.548-.077h.052l.026.078h0l.026-.052.013.052h.092l.04-.04v-.04h.052v-.052l.17.079-.013-.04.065-.013.052-.053.026.027.065-.04-.026.052.014.04.052-.026L20,22.7v-.039h.143l.354-.184.013.052.13-.052-.013.04.065-.04h.065v-.04l.04-.04.026.026.092-.026-.052.184.118-.052.052-.052.026.026.1-.078h.039v-.052h.052V22.32h.053l.013-.1.026.052.04-.065.037.013.052-.052.092.026-.026-.065V22.09H21.6v-.078L21.652,22l-.078-.026.039-.013.065-.092v-.13l.079-.157-.052-.1.039-.04.026.026.04-.014-.026-.052.04.014h.039V21.3h.053v.04l.078-.052-.078-.04-.066-.157-.026.053-.013-.079.078-.013-.091-.066h-.04v.053l-.131-.014.131-.078-.052-.026.092-.092h.052l.039.013-.091-.118-.027.053-.078-.053h-.04l-.013-.052h-.131L21.47,20.6l.065-.026h.039v.04H21.6l-.026-.1.052-.052-.026-.026.052-.13-.013-.065-.052.078h-.041v.04l-.039-.014-.013.04-.065.065-.04-.039.026-.079-.04-.092-.065.026.026-.065-.013-.118-.04.065-.04.04-.078-.079-.014.04-.065.04v.026h.035v.039l-.04-.013-.052.052-.04-.1h-.052v.052h-.052v-.052h-.052V20.1l-.065-.04-.079.052-.065-.13-.092-.026-.065.014.052.091.079.013-.04.013.013.04-.1.04-.04-.079-.052.027h-.04v-.053l-.17-.078h-.13l-.026-.026-.026.079-.1-.1H19.83l.014-.039-.131-.053V19.9h-.039l.013-.04-.092-.013h-.052l-.1-.025H19.4v.052h-.052l-.04-.079-.1.079-.1-.052H19l-.052.052L18.9,19.8v-.04h.052v-.052h-.119l-.092.065.1.078-.171.04H18.61v-.04l-.039.014h-.04v-.04l.026-.026-.04-.04-.052.026-.1-.026-.026.079-.092-.026.04.078.222-.078v.052h-.04l.04.065-.026.079h.05l-.013.065-.078-.052h-.079l.014-.04v-.04h-.04V20l-.052-.027-.013.066.184.078-.04.04-.052-.053-.052.079-.052-.026-.04-.014.1.079-.039.013h-.092v.1l.13.013-.091.013-.066.014v.039h.118l.04.04-.065.065-.1-.078h-.066V20.5l.04-.013.065.039-.039.014-.066.092.04-.014h.065v.052l-.118.026-.052.052-.04-.013.027.052-.04.013-.078-.025-.04.248v.052l-.026.065-.171.079-.078.078-.026-.026-.065.026-.157.274h.061v.092h.052v.053l.065.026h.065V21.7h.052l.013.052.052-.078.026.052.026-.052.052.078.052-.052.092-.013-.078-.026.04-.065.026.026h.13l.341.262.065-.014-.131-.13-.13-.314.026-.1.065-.066h.065l-.006-.026h.02l.026-.01v.01h.1l.079-.052.1.026.02.006.072.086v.13l.1.184.118.118.157.079.392-.026.13-.079.194-.274.026-.262v-.052l.052-.014.013.052.026-.078.052.13.016-.023.01.05.026-.053.222.171v.092h.1V21.5h.052v.065h-.08v.078h.052v.093l-.092.092-.184.026-.288.1-.052.052h-.131l-.026.052.052-.026h.1l.1.026.026-.052.079.052.183-.052.052.026.052-.026.066.1-.092-.026v.052h-.118v.052l-.092-.026-.13.026-.079.027h-.118v.052l-.065-.026-.184.078-.052-.052H19.3l-.1.037-.052-.026L19,22.326l-.013.052-.014-.04-.052-.026v.066h-.092l.052.078.026-.052.014.04h.053v.118h.092l-.026-.079.131.027.039-.014-.025.052v.04h-.04l-.026-.027-.04.04.144.014-.013.039.013.04.079-.052.026.026.052-.052h.04v.078l-.17.027-.119.065.066.013.1-.026Zm-3.052-1.82.052.131-.026.078.04.379.091-.248-.014-.065-.026.078-.039-.065V21.2h.052v-.065h-.052l.014-.144.013.065h.026l-.026-.078.026-.052-.013-.092-.026.026h-.04v.092Zm-.026-.956-.026.092.026.13v.053l.052.183-.026.1.052.014v-.3l.026-.026-.026-.21Zm-.064-1.179h0l.064.142-.052.013.026.171-.052.078.052.13v.433l.13.026V19.24l-.026-.026.026-.052v-.184l-.026-.026.026-.052-.036-.01v-.006l.012-.006-.006-.009.006-.017v-.289l-.026-.025.026-.053-.026-.1.026-.1-.026-.131.026-.052-.026-.052L16.312,18v-.2l-.026-.026.078-.13V17.46l.052-.014.026-.065-.052-.13V17.14h.053v-.158h.039v-.026H16.44v-.275l.081-.111-.052-.013v-.17l-.027-.026.052-.1-.025-.079.052-.052.026-.13-.026-.053.052-.078-.052-.026.065-.014.065-.091-.078-.158.052-.1v-.1l.1-.13v-.052l.157-.118.013.078.066-.367.157-.092-.1-.052.026-.078.039-.04.027.026-.01-.05.04-.013.065-.065-.026-.027v-.039h.041l.065-.092-.026-.052.184-.092v-.052h-.052l.039-.079h.04V13.9l.065-.04L17.5,13.8l.026-.052.131-.079-.052-.078.432-.511h.041V13h.065l-.014-.04.158-.092.04-.078h.065v-.052h.04l.052-.1.065.04-.039.014.014.041-.052.052.066-.04h.039V12.7l.144-.091v-.025l.04-.014-.052-.078.065-.04H18.8v-.04l.04.014.092-.04-.079-.026.222-.092h.053l.052.052h.157l.1-.052.157.052.079-.1.043.061.016.032-.047.023H19.7l-.019.01h.131l-.009-.014.009-.026-.026-.026.046-.046.006.006.052-.052h-.008l.008-.008-.065-.039h-.013l-.13.078v-.065l-.1-.052v-.17h-.079v-.079h.118l.065.014-.052.025.144.013.04-.065.092-.04.013.04-.1.065-.026.065.052.026-.052.092.13-.052L19.9,12.1l.068.119.078-.052.04.1h.065l.1.078.039.092.13-.1L20.4,12.28l.065-.039.013.078.065-.026.157.079h.052l-.013-.04v-.04H20.7l.026-.052.052.026.052-.026.079-.13.026.052.1-.026.065.065-.026.026.04.065.106-.185.065.066v.1l.053.026-.026-.118h.052v.12l.065-.04.026.026.015-.053-.078-.04.144-.04.065.04-.04.013v.026l.171-.1.026.1h.052V12.2l.026-.027-.079-.078.014-.04.052.026.052.052.026-.026.04.04-.026.026.026.052-.026.157.04-.014.052.027.078.026h.1l.066-.066-.053-.078.053-.052.013-.092.051.055H22.4l.04-.013-.04.065-.052-.026-.039.065.1.013.025.155h-.052V12.4l-.1.04.009.009h-.009l.026.013.013.013.157.026h.013l.026-.026-.006-.006.006-.006-.049-.049.023-.068h0v-.01l-.078-.052.092-.066.026-.078h.04v.04l-.013.039h.04v.052l-.079.04V12.4h.04l.052-.052.04.013-.026-.052.052.026v.039h.078v-.052H22.7v-.079h-.052l-.026-.065.04-.065.078.026h.04v-.078h.065l.094.159.065.026.052-.026-.014.039.014.04.052-.026.04.065.065.065.026-.026.039.065H23.3v-.078l-.052-.052v-.04H23.3V12.22h-.052l.052-.131.13.04-.078.052.236.118.064.17-.008.026.144.065-.052-.079H23.7V12.43l.092-.026.078.13.014-.053h.065L24,12.423l.13.026.079.079.039-.079H24.3v.038l.039-.013.052.1h.04v-.13H24.5l.04.092.04-.014.013.052h.079V12.5h.118l.052.052.027-.026.079.052L25,12.527l.026.026h.118v-.106l.1.04-.052.013.013.053.131-.079.065-.039-.052.1.039.04h.079l.078.025.052-.025.079.052.039-.066.1-.065-.052.092.065.013.065-.1.065-.026.052.1.1-.13h.039v.1l.223-.052.092.065-.092.04v.026l.1-.052.1.026v.051l.118-.026.027.065-.079.026.092.065.144-.039-.026-.065h.052v.082H27l.04.04-.066.04-.078-.052-.014.052.119.078.183.026-.013.04.092.039.039.066.066.039.065.092.065.04.222.274.027.131.078.13v.04h.04l.406.748-.052.078.052.052.078.367.078.13.053.052-.027.026.079.1-.026.1.052.21.052.052.026.21v.052l.052.079-.026.052.025.054v.052l.052.1-.052.13.078.13-.052.078.078.157v.08l-.052.079.052.078-.026.052.026.131.014.039H28.75v.171l.026.052v.092h.052L28.8,17.7l.052.026-.026.026v.236l.04-.013.065.353v.413l-.026.026v.13l.026.066h.1v-.052l-.052-.013.065-.04.092.026-.052-.092.078-.235-.052-.014.079-.118-.026-.13v-.04H29.2l.04.013-.026-.052.026-.092.052-.013-.052-.013.026-.13.052-.013-.026-.079-.026-.078.026-.1.026-.026-.052-.052.078-.1-.026-.065.079-.04-.079-.052.052-.013v-.052h-.065l-.04-.04.079-.078-.013-.064.012-.013-.039-.039-.014.052L29.24,17.1l.052-.13.052-.1-.078-.053.078-.052-.078-.026.13-.184v-.078l-.039-.04-.144-.013.052-.014.013-.052.066.026-.027-.065.027-.078-.079-.026.026-.079V16.07l-.026-.092.052-.014-.052-.013-.026-.065.052-.079V15.77h-.052l.026-.092-.065-.144-.014.052-.052-.013.052-.079-.052-.026.1-.13-.027-.079-.078-.052.078-.026-.078-.013.026-.065-.026-.092L29.193,15l-.078-.209-.065-.066-.014.079h-.052v-.1l.13-.039-.065-.04-.04-.04V14.5l-.039.013h-.04v-.039l.014-.04-.053.026-.065-.013.052-.079-.1-.052.065-.039.026.052.014-.04-.04-.04h-.092V14.2h.04l.04-.065-.052-.052.039-.065h.014v-.066l-.157-.262v-.1l-.052-.052.026-.026-.131-.157v-.118h-.065l-.078-.21h-.04v-.039l-.052-.033v-.006l-.03-.012-.023-.014-.078-.17-.065-.04-.118-.118-.1-.21-.366-.262.078-.026-.078-.013L27.453,12h-.04v-.09l-.065-.039-.078-.13-.052.027-.066-.04v-.065h-.065l-.065-.066v-.051l-.065-.066-.032.024H26.86v-.052h-.1l.027-.065-.21-.157v-.04h-.079l-.026-.092-.118-.092h-.1l.04-.065-.2-.144-.052.026-.013-.078h-.092l-.209-.158h-.1v-.026h.066V10.51h-.092l-.1-.1-.078.026-.04-.04.027-.026-.04-.013H25.3l-.079.026-.1-.026-.078-.079-.131.079-.039-.1-.066.026-.13-.1-.052.026-.1-.052-.039-.079-.092.053-.052-.027-.026-.026-.079.079-.052-.026V10.1h.04v-.078h-.131v.038l-.081.04.026-.065-.17-.066-.079.053H23.72V9.934l-.092-.026-.078.052-.014-.052-.091.026H23.38V9.881l-.194.1h-.079l-.039-.038.118-.013.04-.039-.014-.04L23,9.933h-.144l-.014.052L22.8,9.908l-.157.026-.026.092.026.092-.13-.013.039-.013.04-.092V9.921l-.038-.039-.052.026-.052-.026-.079.052-.052-.026-.236.026h-.118V9.882l-.223.077L21.6,9.933l-.039.079-.052-.027-.079.079-.026-.026-.052.026-.052-.026-.04.092-.065-.04-.079.052h-.078l-.078.079-.014-.065.014-.04-.5.236-.079.1L20.3,10.4l-.078.026h-.04v.052l-.065-.026h-.052l-.1.1-.1-.053-.1.079h-.092v.043l-.04-.013-.183.13H19.4l-.053.072-.077.032-.1.153v.065h.13v.065l-.039-.013-.118.013.1.026-.092.065-.1-.078v-.026h.065v-.04l.026-.026-.039-.04-.079.052-.013-.052-.13.052.027.065v.04h-.04l-.04.04.025.026-.222.066v.027L18.7,11.3l.157.13.078-.026.065.118v.04H18.94l-.065.039.052-.118-.066.027-.118-.027L18.7,11.4l-.079.026-.078-.052h-.04v.1l-.172.026-.039.1-.092-.026-.092.065.026.079-.079.1-.13.092-.04.078H17.85V11.92l.157-.092-.026-.065-.118.026h-.039v.04l.039-.013.013.052-.17.026.039.065-.039.065L17.657,12l-.039-.013.026.052-.092.04h-.039v.052H17.46v.055l.053.013-.092.065-.079.1H17.3v-.04l-.04-.04-.042.04.026.052-.17.2h-.04v.039l-.065.092h.04v.052l-.17.079.013.039v.079l-.052.052v.041h-.065l-.04.04.052.052-.1.065-.026.092.078.013v.079h-.052l-.013-.053-.092.027-.026.157-.052.013.065.013v.026h-.04v.052l-.065-.026-.065.144.1.013.026.065-.065.039h-.092v.092l.078.027v.065h.079l-.04.078-.065-.04v-.039h-.04l-.13.158h-.04v.222l-.13.236.026.118L16,14.819l.026.053-.158.236.026.052v.052l-.026.052.052.079-.052.183v.06l-.1.393.065.065.04-.013v.039h-.04l-.04.04v.09l.131.065-.1.052.052.13-.026.157-.014.039h.04v.04l-.065.065-.04-.013.052.1.027.078-.053.1.053.1-.053.052.026.026-.026.13h.053v.04h.039l-.066.092.027.026-.053.1.053.157-.079.052.092.065-.04.066.079.026v.065H15.85v.052h.04l.04.1-.052.014.026.052.079.04-.026.144L16,18.4l.079.052-.014.092.052.1v.066h.053v.039l.032.026-.02-.013-.092.065.04.065.051-.1Zm-.041-.84h0L16.1,17.95l-.079-.026.052-.026-.051-.1L16,17.872l-.026-.052h-.079l.052-.078v-.1h-.052v-.079h.052v.052h.026l.026-.13h.053v.052H16.1v.052l-.026-.026L16,17.611v.026h.079l.1.13V17.9h-.052v-.026H16.1l.025.1Zm12.337-3.142h-.052V14.8l-.026-.026.053-.053.052-.1.024.025.052-.052-.026-.026.053-.052.052-.027.026.027-.025.052h.079l.052.078v.028l-.052-.053h-.079v.053h-.026V14.7h.052v.053l-.235.026.025.051Zm.236-.34h0l-.051-.025-.053.023-.1-.026-.078-.079-.026.079-.026-.052-.079-.027.026-.078-.052-.052v-.079h.079l.052.053.078-.027.052.053h.026l.027.026h.052l.078.078-.052.026-.078-.026-.027.079h.131l.054-.023-.027.052v.026Zm-11.71-.2h-.052l-.053-.052-.025.023h-.13l-.079-.026.026-.052h-.052v-.051l.184.025-.052-.1H16.7v-.026l.1-.052v.052h.052V14l-.026-.078.1.078-.1.053.026.1.184.052-.026-.026-.052-.1L16.992,14l.052.026v.026l.157-.13-.026-.026-.078.026L17,13.87l-.079.026-.026-.052.158-.079L17,13.713v-.078l.052.026-.026.026.078.052.1-.078V13.6l.131.025-.026.13h-.052v-.026l-.052.026.026.052-.026.026.052.052.026.053h-.052l-.026.13-.052-.026-.079.078v.1H16.99v.055Zm11.238-.134h0l-.079-.078v-.1l.026-.078-.026-.078.1-.026.026.052.026-.079v-.052l.026-.052.052.079v.078l.053.026-.079.052h-.1v.052h.078V14.1h.052v.026l-.156.026Zm-.184-.472h0v-.1l-.133.026v-.052h-.052l.052-.079-.052-.026V13.5h-.077l.026-.052.026-.052-.078-.026.026-.078-.026-.052.052-.079-.052-.026-.026-.1h-.052v.051l-.052-.026-.026-.1-.052-.026h-.13l.052-.1h-.054v-.079h.052v-.026l.078-.1v.078l-.026.079h.052v.1l.052.026.027-.026.1.026v.079H27.73V13l.077.026-.026.026.052.052.026.078.052.026-.078.053h.078v.078l-.026-.052-.026.052.053.078.027-.078.026.052.078-.026v.053h.078V13.5l-.026.026.053.026.078.052.052-.026v.079h-.026l-.079-.027-.128.052Zm-10.77-.129h0l.053-.077h.052l-.1-.026.052-.027v-.078h.158l.079-.1-.052.026V13.21h-.053v-.052H17.41v.052h.052v.026l-.052.026.052.026H17.41l-.052-.052H17.28l-.026.1.026.026-.1-.026v-.078l-.1.13h-.051V13.31l.183-.1.131-.026.078-.078v-.052h.052l.053.052.026-.026h.078L17.593,13l.026-.052-.078.026-.026-.052h.157V12.9l.1-.078.078.052h.078v-.052l.053-.052-.079-.157-.157-.026-.025-.158.1.026v.026l.078.053h.13l.052-.027v-.077h.052l.027.077-.078.027v.1l-.04.053h.039v.054h-.052V12.7l-.026.035.079.026-.053.1h-.052v.053l-.183.1H17.75l-.052.026h.052v.107h-.025l-.1.13v.052h-.078l-.079.078-.025.129-.079-.026-.08.027Zm7.654-1.258h0l-.026-.078-.1-.025.026-.079h-.052l-.057.051-.052-.1-.13.078v-.052l-.026.052h-.052v-.026h-.026l-.079-.078-.078.026.079.026-.052.026-.079-.026.026-.052-.13-.079V12h-.026l-.078.026L23.99,11.9l-.079-.026.026-.079H23.88l.079-.13.078.026.052-.026v.052h-.1l-.026.079v.05h.077l.078.026.079-.13.106.027.026.078L24.3,11.9l.078-.026-.052.079-.052-.027-.026.052h.183l-.026-.052.1-.13.079.052h-.052V11.9h.078l-.026.052-.052-.026-.079.13h.052l.053-.078L24.64,12h.026v-.052l.026-.052.052.158h-.052l.078.025.027-.052.026.027V12h-.079v-.027l.052-.13v.1l.079.052.026.026-.052.1.1.026v.106l-.026.025Zm-6.34-.053h0l-.287-.1-.13.026V12.14h.052v-.052h.052l.13-.052.052.078.053-.025V12.03l.052-.025.078.052-.026.13-.078-.026.026-.052H18.51v.078h.078v.052Zm3.615-.156h-.157l.026-.052h-.079v-.053h-.026l-.052.078L21.784,12l.052-.1.052-.052h.026V11.8h-.079V11.77l.079-.157.079.156h-.052l.026.157.1.078.026-.026-.026-.026-.078-.1.1-.079.026-.078.078.158h.052l.053-.027.026.027V11.8h.052l.052.052-.026.052h.051v.054l.027.026-.027.026-.026-.078-.052.078.026.026-.052.052h-.106v-.1l.026-.1-.1.051.026.026h.027l-.053.079.026.052Zm1.391-.133h0l-.157-.052.026-.052h-.026v.025h-.052v-.079h.052l.026-.052.081.079-.026.052.1.026.1-.158v.053l.1-.026.078.079-.052.026V11.82H23.8l-.079.027.027.078-.157.026Zm-.239-.1H23.3l-.13-.026.078-.052-.052-.052-.051.077-.079-.026.026-.078.1-.052.026.026v.026l.052-.026v.1l.077.052v.025Zm1.048-.026h0l-.078-.026-.052-.158.1-.078-.026-.052H24.4v.052l.052.026.052-.078.026.025v.027l.052-.027.052.027.052-.027-.025.079.052-.026h.052v.079l-.052.1-.13-.026-.026-.079-.078.026v.079l-.1-.052.026.1Zm-3.2,0h0l.051-.1-.025-.051-.052.052-.052-.027.131-.157.026.026.026-.052.052.052.026-.052-.052-.027v-.054h.052l.078-.13.052.1h.053v.052l-.053.078.077.028h-.1V11.48l-.078.131-.079-.026v.053l-.078-.026.078.131-.078.052-.05.025Zm2.988-.131h-.053v-.052h-.052v-.026h.026l-.052-.052V11.3l.052.1.026-.026.026.052-.052.079h.052v.052h.052v.026h-.051v.052l.025.051Zm1.152-.209H25l.052-.1-.078.078h-.052v-.026h.026V11.4l.026-.078.079.052.157.026-.026.052.052-.026.026-.052.052.026.027.077Zm.263-.209h-.028l-.05-.025-.051.025v-.025l.078-.1h.052l-.052-.078.052-.052h.079l.026.052v.026h.05l.053-.052.026.026.052-.026.052.1-.158-.026h-.1l-.1.1.027.052Zm-3.171-.212h0l-.078-.129-.052-.026.1-.026v-.052h.1l.052-.1h.052v.051l-.026.052-.1.052.027.026-.053.052-.078-.052-.026.027h.052v.052l.052.053-.025.024Zm1.7-.207h0l-.051-.026v-.052H24.01v.051l-.131.026L23.9,10.8h.026v-.077h.1l.079-.052.051.1.1-.026-.025.1-.079-.025-.026.026Zm-1.413-.183h0L22.7,10.59l-.077-.052v.051l-.053.052h-.052l.052-.052V10.51l.131-.052v-.1l.078.052.079-.052-.027.1h-.1v.054l-.026.052.1.078-.077.026Zm1.571-.051h-.158v-.079h-.077V10.6h-.026l-.026-.052.13-.079-.026-.026-.13.078-.027-.026.158-.1.079.026-.026.053.026.025-.053.026h.131l.026.1Z" transform="translate(1160.244 -475)"><animateTransform attributeType="xml" attributeName="transform" begin="0" dur="20000ms" fill="freeze" from="1160.244 -475" repeatCount="indefinite" to="1160 -590" type="translate"/></path></g></svg>
