<?xml version="1.0" standalone="no"?>
<!DOCTYPE svg PUBLIC "-//W3C//DTD SVG 20010904//EN"
 "http://www.w3.org/TR/2001/REC-SVG-20010904/DTD/svg10.dtd">
<svg version="1.0" xmlns="http://www.w3.org/2000/svg"
 width="700.000000pt" height="700.000000pt" viewBox="0 0 700.000000 700.000000"
 preserveAspectRatio="xMidYMid meet">
<metadata>
Created by potrace 1.14, written by Peter Selinger 2001-2017
</metadata>
<g transform="translate(0.000000,700.000000) scale(0.100000,-0.100000)"
fill="#000000" stroke="none">
<path d="M3368 6935 c-2 -2 -55 -6 -118 -9 -63 -4 -124 -9 -135 -11 -11 -2
-38 -6 -60 -9 -346 -41 -732 -159 -1061 -324 -182 -91 -184 -92 -184 -98 0
-10 24 -28 63 -49 20 -11 37 -23 37 -28 0 -8 31 -6 40 3 13 15 167 84 182 83
10 -1 16 2 13 8 -11 17 48 32 70 18 18 -11 19 -11 6 4 -11 15 -10 18 13 27 14
5 33 7 43 3 10 -4 14 -2 10 4 -8 13 80 46 96 36 6 -3 7 -1 3 5 -4 7 -1 12 8
12 25 0 30 1 41 10 17 13 111 41 147 43 9 1 14 5 11 10 -3 5 1 7 8 6 8 -1 21
0 29 4 8 3 29 9 45 13 17 4 32 8 35 9 69 17 112 26 140 29 19 3 37 6 40 7 3 1
10 3 15 4 6 1 24 4 40 8 37 8 116 18 172 22 23 2 47 7 54 11 8 5 9 3 4 -7 -7
-11 -6 -12 6 -3 21 17 180 26 198 11 9 -8 12 -8 8 -1 -5 8 28 11 113 12 88 0
118 -3 113 -12 -4 -7 -2 -7 8 1 12 10 18 10 29 0 8 -8 11 -8 6 0 -7 14 102 6
121 -9 7 -6 14 -5 18 2 3 5 11 10 16 10 6 0 8 -3 6 -7 -3 -5 15 -7 41 -6 54 1
74 -5 65 -21 -3 -6 -1 -6 8 2 7 6 17 12 22 12 4 0 5 -6 1 -12 -6 -10 -5 -10 8
-1 8 7 17 11 20 8 3 -3 25 -8 49 -11 24 -3 51 -8 59 -11 8 -3 23 -5 34 -4 13
2 16 -1 10 -11 -6 -10 -4 -10 9 1 16 13 22 8 18 -13 -1 -5 4 -4 12 2 17 14 90
-5 80 -22 -4 -6 1 -5 10 3 9 7 17 10 17 5 0 -5 11 -10 25 -10 40 -3 76 -14 71
-22 -3 -5 8 -6 25 -4 16 2 29 0 29 -6 0 -5 11 -9 25 -9 14 0 33 -9 41 -19 9
-11 13 -13 9 -6 -9 17 5 15 28 -5 11 -10 17 -13 13 -6 -5 9 3 8 27 -2 19 -8
38 -11 42 -7 5 4 5 -1 2 -10 -4 -12 -2 -15 8 -12 21 8 83 -15 107 -39 11 -12
18 -16 14 -9 -9 16 5 15 29 -2 11 -7 23 -14 27 -15 4 -1 21 -7 38 -13 27 -9
29 -12 18 -27 -12 -14 -11 -15 5 -2 14 11 20 11 34 0 9 -8 19 -13 22 -13 15 3
50 -20 44 -29 -3 -6 -1 -7 5 -3 6 4 33 -5 61 -18 43 -22 51 -23 61 -11 7 8 19
15 26 15 8 0 14 5 14 11 0 6 7 8 16 5 8 -3 13 -2 10 3 -3 4 7 14 22 20 l26 13
-24 18 c-33 25 -266 140 -376 186 -254 106 -606 201 -844 229 -30 4 -66 8 -80
10 -101 13 -502 29 -512 20z"/>
<path d="M3853 6755 c0 -8 4 -12 9 -9 5 3 6 10 3 15 -9 13 -12 11 -12 -6z"/>
<path d="M3397 6714 c-1 -1 -54 -4 -117 -8 -63 -3 -124 -8 -135 -10 -11 -2
-47 -7 -80 -11 -32 -4 -67 -8 -76 -10 -9 -2 -34 -6 -55 -9 -32 -5 -72 -13
-114 -21 -3 -1 -18 -4 -35 -8 -16 -4 -39 -9 -50 -12 -51 -11 -200 -56 -295
-89 -58 -21 -109 -39 -115 -40 -5 -2 -32 -13 -58 -24 -27 -12 -51 -22 -53 -22
-3 0 -41 -18 -85 -40 -43 -21 -79 -36 -79 -32 0 4 -4 2 -8 -4 -4 -6 -43 -30
-87 -54 -73 -39 -363 -224 -375 -239 -3 -3 -38 -32 -78 -64 -40 -32 -92 -76
-115 -98 -23 -21 -48 -37 -55 -34 -7 3 -10 0 -6 -6 7 -11 -28 -49 -46 -49 -5
0 -10 -6 -10 -14 0 -15 -49 -52 -63 -48 -5 1 -6 -2 -2 -7 3 -6 -21 -39 -54
-73 -123 -130 -339 -415 -364 -481 -4 -11 -12 -15 -18 -11 -8 4 -9 3 -5 -5 4
-6 1 -23 -8 -36 -27 -42 -57 -97 -113 -208 -143 -288 -232 -574 -297 -959 -2
-15 -8 -62 -11 -105 -9 -101 -8 -97 -20 -105 -6 -5 -6 -8 2 -8 7 0 10 -10 6
-27 -9 -47 -8 -383 1 -383 5 0 3 -6 -3 -13 -6 -8 -8 -17 -4 -21 8 -8 10 -21
18 -111 3 -38 8 -90 12 -115 4 -25 7 -61 7 -82 1 -20 4 -34 9 -31 4 2 8 -5 8
-16 1 -12 2 -24 3 -28 1 -5 5 -24 9 -43 8 -38 11 -53 27 -118 6 -24 7 -48 4
-54 -4 -7 -2 -8 4 -4 8 4 12 -1 13 -13 2 -23 3 -29 12 -51 7 -19 28 -87 31
-103 2 -7 8 -25 14 -40 7 -15 15 -40 18 -55 4 -15 11 -33 16 -39 6 -7 8 -20 4
-28 -3 -9 -2 -13 3 -10 5 3 12 -5 16 -17 4 -13 13 -36 20 -53 7 -16 25 -57 40
-90 14 -33 38 -81 51 -107 14 -27 22 -53 19 -58 -4 -6 -1 -9 7 -8 8 2 13 -6
12 -19 0 -12 2 -21 5 -20 3 1 8 -3 10 -8 3 -6 13 -19 23 -29 10 -11 18 -24 18
-29 0 -5 9 -21 20 -37 11 -15 17 -30 13 -34 -3 -3 -1 -6 5 -6 6 0 23 -22 39
-50 15 -27 32 -50 36 -50 5 0 5 -5 2 -10 -3 -5 -2 -10 4 -10 5 0 20 -17 32
-37 13 -21 29 -42 36 -46 7 -4 13 -15 13 -22 0 -8 4 -15 8 -15 4 0 15 -12 24
-28 9 -15 28 -39 42 -54 27 -28 34 -44 14 -32 -7 4 -8 3 -4 -5 4 -6 11 -9 15
-7 4 3 23 -11 41 -32 17 -20 53 -59 79 -87 25 -27 45 -53 44 -57 -2 -4 1 -8 6
-8 14 0 116 -100 116 -113 0 -7 5 -12 12 -12 11 0 59 -36 108 -82 11 -10 35
-29 53 -42 18 -12 29 -27 26 -33 -4 -6 -3 -8 3 -5 12 8 79 -41 75 -54 -1 -6 1
-8 6 -5 12 7 54 -23 47 -35 -3 -5 0 -6 8 -3 8 3 21 -1 28 -8 8 -7 44 -31 81
-53 37 -22 68 -44 68 -48 0 -5 -4 -6 -8 -3 -5 3 -9 -1 -9 -9 0 -11 4 -12 13
-4 16 13 57 2 48 -13 -5 -7 -1 -9 9 -5 9 3 19 2 22 -3 4 -6 26 -19 50 -30 34
-15 43 -24 39 -38 -4 -12 -3 -13 3 -5 7 10 16 10 41 1 18 -7 32 -16 32 -20 0
-4 6 -8 13 -8 8 0 27 -6 43 -14 67 -32 140 -64 162 -71 12 -3 20 -11 17 -16
-3 -5 0 -7 7 -4 18 7 90 -20 81 -29 -5 -4 -1 -7 7 -6 29 4 51 0 46 -9 -4 -5 3
-7 14 -4 11 3 20 0 20 -6 0 -5 6 -8 13 -6 16 7 123 -31 120 -42 -1 -4 1 -10 4
-13 4 -3 3 1 -1 8 -4 7 -1 12 8 12 8 0 17 -6 19 -12 4 -10 6 -10 6 0 1 8 6 10
14 5 6 -4 23 -9 37 -11 13 -2 27 -6 30 -10 5 -7 9 -8 56 -11 14 0 23 -4 21 -8
-3 -5 11 -9 31 -9 21 -1 51 -4 67 -7 28 -5 119 -17 157 -21 10 -1 20 -5 24 -8
3 -4 13 -4 22 -1 10 4 13 2 8 -5 -4 -7 2 -8 24 -2 16 5 30 5 30 1 0 -5 12 -6
26 -3 18 3 25 1 20 -6 -3 -6 -2 -14 4 -17 6 -4 9 -1 8 7 -2 9 8 12 37 11 83
-4 351 -4 378 0 15 2 27 0 27 -5 0 -5 6 -6 13 -1 28 18 92 19 113 3 18 -14 18
-14 5 2 -12 16 -11 18 18 14 17 -2 33 0 36 4 2 3 26 6 54 6 27 -1 47 2 44 7
-2 4 6 7 19 8 13 0 32 2 43 4 11 2 23 -1 27 -8 5 -8 8 -7 8 5 0 12 7 15 28 13
15 -1 29 1 32 5 3 4 19 10 37 13 17 3 37 8 44 13 8 5 10 3 4 -7 -7 -11 -6 -12
7 -2 8 7 18 10 21 6 4 -3 7 -2 7 4 0 5 6 10 13 10 6 0 53 12 102 26 50 13 97
26 105 28 8 2 18 8 21 12 3 4 17 9 30 11 13 2 40 10 59 19 19 8 44 17 55 19
11 1 23 7 26 11 4 5 18 10 32 10 14 1 23 5 20 10 -3 6 9 10 20 6 1 0 33 16 71
36 38 20 77 34 87 32 13 -3 16 0 12 11 -5 11 -2 14 10 9 9 -3 17 -2 17 3 0 5
13 16 29 25 23 11 31 12 34 2 4 -8 6 -7 6 3 1 18 134 93 146 82 5 -4 6 -2 2 3
-5 9 112 94 120 88 2 -2 12 6 23 17 12 12 25 18 30 15 6 -4 10 0 10 8 0 15 24
30 50 31 8 1 15 6 15 12 0 6 29 34 65 63 36 29 84 69 108 89 24 20 48 36 53
34 6 -1 8 2 5 6 -7 12 28 44 38 35 4 -5 6 -3 4 2 -1 6 33 47 77 92 56 59 82
79 88 70 6 -8 7 -7 4 4 -6 17 39 76 54 72 5 -2 8 1 6 5 -1 5 20 37 47 71 35
45 51 59 57 50 6 -10 8 -7 7 7 -2 22 102 175 114 168 3 -2 10 1 14 7 4 8 3 9
-4 5 -17 -10 -15 9 2 23 8 6 19 25 26 41 7 16 17 27 23 23 5 -3 7 -2 4 4 -3 5
4 25 16 44 13 19 31 51 42 71 16 31 22 35 35 25 13 -10 13 -10 2 5 -12 14 -11
20 1 38 7 11 16 18 19 15 2 -3 4 5 4 18 -1 13 4 21 12 19 8 -1 11 1 8 6 -8 14
26 92 37 85 6 -3 7 -1 4 4 -6 10 4 40 52 148 10 22 24 57 30 77 9 28 16 36 29
32 13 -5 14 -4 3 4 -11 8 -10 18 5 63 10 30 19 60 20 67 1 8 6 21 10 30 4 9 9
26 11 36 2 11 10 33 18 48 7 16 10 26 6 23 -5 -2 -3 13 3 35 5 22 13 40 16 40
3 0 5 12 5 28 -1 15 2 34 6 43 4 8 10 29 13 45 2 16 5 31 6 34 1 3 1 15 0 28
-1 12 2 22 7 22 4 0 9 17 9 38 3 71 17 157 26 163 6 4 6 9 -2 14 -6 4 -9 14
-5 23 12 32 26 432 15 432 -3 0 -5 21 -4 47 0 26 -3 67 -6 90 -4 24 -3 46 2
49 4 3 8 11 8 17 0 7 -4 6 -10 -3 -7 -11 -10 -4 -11 28 -1 23 -2 45 -3 50 -1
4 -6 34 -10 67 -9 65 -9 68 -25 138 -6 27 -9 52 -6 57 3 4 1 10 -4 12 -6 1
-12 19 -14 38 -2 19 -8 43 -12 53 -4 9 -4 24 -1 33 3 8 2 12 -4 9 -6 -3 -10 0
-11 7 -1 22 -6 39 -50 173 -24 72 -43 132 -44 135 0 3 -11 27 -23 54 -12 26
-19 53 -15 59 3 6 1 7 -5 3 -7 -4 -12 -1 -12 6 0 19 -175 364 -191 378 -10 9
-33 55 -31 63 1 4 -2 7 -6 7 -5 0 -24 24 -42 53 -154 240 -404 512 -655 714
-281 226 -630 420 -935 519 -25 8 -54 19 -65 24 -11 4 -72 22 -136 39 -109 30
-128 34 -189 46 -14 3 -36 7 -50 10 -14 3 -43 8 -65 11 -22 3 -47 7 -55 10 -8
3 -42 8 -75 10 -33 3 -66 7 -74 10 -25 8 -415 25 -424 18z m-92 -314 c-2 -3 2
-7 10 -7 8 0 12 4 9 9 -9 13 140 9 155 -4 11 -10 13 -10 7 0 -5 9 6 12 46 12
30 0 60 -6 67 -12 11 -10 13 -10 7 0 -4 7 -1 12 7 12 8 0 19 -10 26 -22 l11
-23 -6 23 c-6 24 6 28 37 12 14 -8 19 -7 19 2 0 8 3 9 8 3 4 -5 23 -11 42 -11
98 -4 175 -15 182 -27 6 -9 8 -9 8 0 0 9 7 10 25 3 14 -5 25 -8 25 -6 0 2 20
-2 44 -9 24 -8 47 -11 50 -8 3 3 12 0 21 -7 8 -7 15 -9 15 -4 0 5 7 0 15 -10
8 -11 15 -15 15 -9 0 9 22 11 40 2 3 -1 10 -3 15 -3 30 -4 145 -42 145 -47 0
-4 8 -6 18 -5 9 2 19 0 22 -3 3 -3 38 -17 78 -29 40 -13 70 -26 68 -30 -2 -4
7 -8 20 -8 14 -1 50 -14 82 -30 31 -15 59 -28 62 -28 13 -2 176 -90 181 -98 3
-6 9 -9 13 -8 11 2 86 -43 86 -52 0 -4 9 -8 20 -8 10 0 23 -6 27 -12 4 -7 22
-21 38 -30 17 -10 29 -22 27 -28 -1 -7 2 -9 8 -5 14 9 42 -14 33 -28 -3 -6 -1
-7 5 -3 14 8 94 -43 86 -55 -3 -5 -2 -9 3 -8 21 4 33 -2 33 -16 0 -8 3 -14 8
-13 12 4 72 -45 66 -54 -3 -5 -2 -8 3 -7 20 3 34 -2 28 -11 -3 -5 1 -10 10
-10 9 0 13 -4 10 -10 -3 -5 -1 -10 5 -10 18 0 120 -102 113 -113 -3 -6 -2 -7
3 -4 13 7 96 -77 86 -87 -4 -4 0 -6 8 -4 9 2 14 -4 14 -14 -1 -10 2 -16 6 -13
12 7 82 -74 74 -87 -4 -6 -3 -8 3 -5 6 4 16 0 23 -8 7 -8 10 -15 6 -15 -3 0 7
-14 24 -32 17 -17 44 -52 60 -77 16 -25 33 -51 37 -56 42 -54 63 -85 63 -95 0
-6 9 -20 20 -32 10 -12 17 -24 15 -28 -3 -5 2 -10 10 -14 8 -3 15 -13 15 -22
0 -14 -2 -15 -17 -3 -16 13 -17 12 -4 -3 7 -10 17 -15 22 -12 5 3 13 -6 18
-19 6 -14 15 -28 21 -32 5 -3 8 -11 5 -16 -4 -5 -2 -9 4 -9 5 0 8 -9 6 -20 -2
-11 0 -18 6 -15 5 4 12 -2 15 -12 3 -10 22 -51 41 -90 19 -40 31 -78 27 -84
-4 -7 -3 -9 3 -6 9 6 80 -166 76 -183 -1 -3 3 -13 9 -23 5 -10 11 -26 13 -35
2 -9 10 -37 18 -62 16 -45 31 -103 41 -150 33 -152 38 -181 41 -227 1 -22 5
-45 8 -50 4 -7 16 -120 22 -208 1 -16 -3 -33 -9 -37 -7 -5 -7 -8 2 -8 11 0 13
-33 11 -157 -1 -87 -4 -162 -7 -166 -2 -5 -6 -43 -8 -85 -2 -42 -6 -88 -9
-102 -3 -14 -8 -41 -11 -60 -11 -83 -52 -272 -79 -360 -23 -78 -32 -100 -39
-93 -4 4 -4 1 -1 -7 3 -9 -6 -43 -19 -77 -13 -34 -21 -64 -18 -67 3 -3 0 -6
-6 -6 -7 0 -12 -9 -12 -19 0 -11 -4 -22 -9 -25 -4 -3 -11 -18 -14 -33 -6 -30
-43 -76 -55 -69 -4 2 -118 7 -252 11 -135 3 -308 8 -385 10 -77 2 -230 6 -340
9 -110 3 -308 8 -440 12 -310 9 -799 8 -1450 -2 -630 -9 -1604 -10 -1775 -1
-110 5 -133 10 -191 36 -99 45 -214 65 -330 58 l-97 -6 -16 42 c-27 72 -94
281 -100 312 -3 17 -10 49 -16 73 -6 24 -8 47 -5 53 4 5 2 9 -3 9 -5 0 -12 17
-15 38 -3 20 -11 69 -17 107 -6 39 -13 93 -15 120 -2 28 -5 50 -5 50 -1 0 -3
34 -6 75 -3 41 -6 84 -8 95 -2 11 1 28 5 37 6 10 5 19 -1 23 -7 4 -7 12 0 25
6 10 6 21 2 24 -4 3 -7 24 -5 48 1 24 5 84 7 133 3 50 7 106 9 125 16 122 20
146 30 152 9 6 8 8 -1 8 -8 0 -10 5 -5 13 4 6 6 20 5 30 -2 9 1 17 7 17 6 0 8
7 5 15 -4 8 -3 23 1 33 10 21 12 30 14 67 1 23 3 27 11 15 7 -11 8 -5 3 19 -5
27 -3 32 7 26 9 -5 11 -4 6 3 -6 11 28 154 42 177 4 6 7 12 7 15 1 24 41 118
48 113 6 -3 7 -1 3 6 -10 16 3 53 16 45 7 -4 8 -2 4 5 -10 16 24 102 37 94 5
-3 7 -1 4 5 -9 14 3 43 14 36 5 -3 6 3 2 12 -5 13 -3 15 7 9 9 -5 11 -4 6 4
-8 13 93 213 105 206 4 -3 11 0 15 6 4 8 3 9 -4 5 -14 -8 -15 3 -3 23 5 7 13
11 18 8 5 -3 9 4 9 16 -1 13 4 21 12 19 8 -1 11 2 6 9 -4 7 1 18 11 26 11 7
16 13 12 13 -4 0 -3 9 3 20 6 12 16 18 23 14 7 -4 9 -4 5 1 -8 9 22 65 34 65
4 0 8 5 8 11 0 6 12 26 27 45 20 27 28 32 36 22 6 -10 7 -9 3 4 -10 32 265
344 293 333 9 -3 12 -3 8 1 -12 12 33 53 52 47 14 -4 14 -3 1 6 -13 10 -8 15
13 12 4 0 6 5 5 11 -2 7 5 12 14 12 11 -1 15 4 10 15 -5 14 -4 14 11 2 15 -12
17 -12 12 1 -7 18 47 62 60 50 5 -4 5 -2 1 5 -7 12 31 40 47 35 5 -1 6 2 2 7
-6 10 33 37 48 33 4 -1 7 2 7 8 0 5 19 22 43 36 23 15 45 32 49 38 4 6 8 7 8
2 0 -5 12 1 27 15 14 13 23 17 18 9 -5 -8 3 -3 18 12 16 17 32 25 41 22 11 -4
16 0 16 11 0 11 5 15 16 11 8 -3 13 -2 10 3 -3 4 6 13 21 20 21 10 28 9 36 -1
6 -9 7 -8 3 4 -5 18 25 43 38 31 3 -3 6 -1 6 6 0 8 6 11 16 7 8 -3 13 -2 10 2
-5 9 73 48 87 44 4 -1 7 3 7 9 0 5 4 8 9 5 5 -4 11 -2 13 2 6 15 136 64 149
57 7 -5 10 -4 5 3 -7 12 61 35 77 25 6 -3 7 -1 3 5 -7 11 -3 13 37 16 6 1 15
5 19 10 3 5 17 10 30 12 12 1 24 3 26 3 1 1 5 1 10 2 4 0 13 5 20 11 6 6 12 8
12 5 0 -3 16 1 35 9 42 17 58 18 49 2 -4 -7 2 -5 13 5 11 10 33 20 49 23 15 3
32 8 37 11 6 3 7 1 3 -5 -4 -6 5 -5 20 3 29 15 49 11 38 -7 -4 -7 -2 -8 5 -4
6 4 9 11 6 16 -3 4 2 10 10 14 8 3 17 0 21 -6 4 -6 9 -6 13 -1 10 17 61 25 61
11 0 -9 3 -9 8 -2 11 17 42 25 42 11 0 -9 2 -9 8 0 4 6 40 13 81 16 40 3 75 7
76 9 7 7 64 5 60 -2z m-2487 -3977 c6 -16 17 -45 26 -65 l16 -37 -108 1 c-111
1 -133 5 -111 19 9 5 10 9 2 9 -6 0 -9 8 -6 19 4 16 23 30 58 42 6 2 26 11 45
21 49 24 67 22 78 -9z m5301 -95 c8 -7 11 -8 8 -2 -4 6 8 9 31 8 20 -1 47 -3
60 -3 16 -1 21 -5 16 -13 -6 -10 -4 -10 7 0 7 6 30 12 51 12 36 0 38 -2 38
-30 l0 -31 -130 2 c-104 1 -130 4 -130 15 0 8 5 14 11 14 5 0 7 5 4 10 -7 11
2 30 14 30 4 0 13 -6 20 -12z m-5146 -22 c-4 -5 0 -6 8 0 18 11 80 14 74 3 -3
-4 -1 -11 5 -14 6 -4 9 -1 8 6 -2 10 35 13 172 12 142 0 175 -3 172 -14 -2
-11 1 -11 10 1 7 8 27 14 43 14 17 -1 213 -4 437 -5 238 -3 404 -8 400 -13 -3
-5 1 -5 9 0 19 11 68 13 97 3 12 -5 22 -5 22 -1 0 4 34 7 75 7 41 0 75 -3 75
-7 0 -4 13 -3 29 2 16 4 32 6 35 3 3 -3 151 -6 330 -6 178 -1 322 -5 320 -8
-2 -4 0 -11 6 -14 6 -4 9 -1 8 6 -2 7 5 15 16 17 11 2 16 0 12 -7 -4 -6 -1 -9
6 -7 7 3 25 7 40 10 23 5 27 3 22 -11 -5 -14 -4 -15 4 -4 12 17 144 23 134 6
-3 -5 2 -4 11 4 12 9 17 10 17 2 0 -7 5 -9 12 -5 19 12 76 8 93 -6 12 -10 15
-10 13 -1 -4 18 243 15 254 -2 6 -9 8 -9 8 1 0 6 11 12 25 12 14 0 25 -6 26
-12 0 -10 2 -10 6 0 3 8 32 12 94 12 64 0 89 -3 89 -12 0 -10 2 -10 8 -1 10
15 74 14 65 -1 -3 -6 0 -5 8 2 16 15 33 16 23 0 -5 -8 -3 -8 7 -2 19 12 129
13 122 0 -4 -5 -1 -6 8 0 19 12 52 12 61 -1 5 -6 8 -5 8 4 0 10 3 11 14 2 11
-9 16 -9 21 0 6 8 10 7 16 -2 7 -12 9 -12 9 0 0 10 3 11 14 2 8 -7 16 -8 19
-4 6 10 163 10 173 1 3 -4 16 -3 28 1 11 4 39 6 61 4 106 -7 151 -7 163 0 6 5
12 5 12 0 0 -4 66 -7 147 -6 101 1 152 -2 162 -10 12 -9 13 -9 7 1 -4 7 -1 12
8 12 9 0 16 -6 16 -12 0 -8 3 -9 8 -3 10 14 46 19 37 5 -4 -7 1 -7 14 2 16 10
25 10 40 1 10 -7 22 -9 25 -5 4 3 16 7 27 9 14 2 18 -1 13 -9 -6 -10 -4 -10 8
0 12 9 18 10 23 2 4 -7 11 -7 18 -2 14 10 118 8 136 -2 6 -4 11 -4 11 1 0 4
43 8 95 8 79 0 94 -2 90 -14 -5 -12 -3 -12 12 0 20 17 57 14 47 -4 -5 -8 -2
-8 7 1 7 6 29 12 48 12 31 0 33 -1 19 -17 -8 -10 -23 -36 -33 -58 -53 -116
-207 -348 -314 -475 -12 -14 -38 -45 -59 -69 -45 -54 -177 -188 -252 -256
-270 -244 -633 -458 -980 -577 -84 -28 -246 -76 -285 -84 -11 -2 -42 -8 -70
-14 -27 -6 -61 -12 -75 -15 -14 -3 -36 -7 -50 -10 -14 -2 -45 -7 -70 -10 -25
-3 -61 -8 -80 -10 -111 -15 -389 -20 -515 -10 -1025 86 -1904 675 -2365 1585
-6 12 -8 26 -4 32 4 7 3 8 -4 4 -7 -4 -12 -5 -12 -2 0 2 -2 11 -5 19 -5 11 6
14 49 13 31 0 52 -4 49 -10z"/>
<path d="M2710 6296 c0 -2 8 -10 18 -17 15 -13 16 -12 3 4 -13 16 -21 21 -21
13z"/>
<path d="M4495 6200 c-3 -5 -1 -10 4 -10 6 0 11 5 11 10 0 6 -2 10 -4 10 -3 0
-8 -4 -11 -10z"/>
<path d="M3415 5530 c-11 -5 -39 -9 -62 -9 -73 -2 -226 -69 -313 -139 -161
-130 -231 -264 -244 -467 -6 -83 33 -218 101 -350 58 -111 209 -309 353 -464
40 -43 129 -161 153 -202 15 -26 33 -49 42 -53 23 -8 20 -56 -4 -56 -15 0 -24
15 -41 71 -12 39 -24 69 -26 66 -3 -3 3 -34 14 -70 19 -64 19 -65 1 -70 -16
-4 -19 1 -19 27 0 18 -8 57 -19 87 -33 96 -86 201 -61 122 67 -217 73 -241 66
-297 -7 -53 -9 -56 -36 -56 -30 0 -45 21 -28 38 14 14 1 32 -23 32 -17 0 -20
-6 -17 -32 3 -27 -1 -33 -22 -38 -24 -6 -25 -8 -25 -95 l0 -90 303 -1 c167 0
305 3 307 7 3 4 5 35 6 70 2 113 3 109 -35 109 -26 0 -33 4 -32 18 1 11 -6 17
-19 17 -13 0 -20 -6 -19 -17 1 -11 -5 -18 -16 -18 -14 0 -21 13 -29 51 -11 49
-9 60 30 183 22 72 43 138 44 148 4 16 114 154 188 233 81 87 202 300 248 435
31 93 37 294 10 371 -43 126 -207 317 -310 361 -25 11 -64 28 -87 39 -22 10
-57 19 -78 19 -20 0 -46 5 -57 11 -26 13 -217 21 -244 9z m166 -315 c49 -18
112 -73 105 -92 -3 -7 0 -12 6 -10 16 3 34 -82 27 -128 -6 -39 -9 -36 -13 15
-5 51 -19 100 -32 111 -8 6 -12 15 -9 18 2 4 -1 8 -8 9 -67 8 -117 13 -139 14
-17 0 -25 5 -21 11 3 6 1 7 -5 3 -23 -14 -56 -15 -71 -3 -12 9 -13 9 -7 0 7
-12 -6 -17 -41 -16 -6 0 -9 -5 -7 -12 3 -7 0 -16 -7 -21 -8 -5 -10 -3 -4 6 5
9 4 11 -4 6 -6 -4 -9 -11 -6 -16 3 -5 -1 -20 -10 -33 -8 -13 -17 -45 -20 -72
-6 -63 -12 -67 -17 -10 -5 74 16 129 66 169 75 63 141 78 217 51z m-99 -328
c10 -16 10 -21 -4 -39 -16 -20 -78 -35 -78 -18 0 6 4 9 9 6 12 -8 36 22 26 32
-4 4 -10 1 -12 -5 -3 -7 -11 -13 -18 -13 -7 0 -16 6 -18 13 -4 9 -8 8 -16 -3
-5 -8 -13 -11 -17 -8 -3 4 3 20 15 36 20 28 23 29 63 20 23 -5 46 -14 50 -21z
m174 14 c-3 -5 1 -14 9 -21 8 -7 15 -17 15 -22 0 -6 -6 -6 -14 1 -10 8 -16 9
-21 1 -3 -5 -17 -7 -31 -4 -30 8 -32 -9 -1 -24 12 -6 16 -11 9 -11 -25 -2 -50
18 -56 45 -4 15 -3 30 3 33 16 10 92 11 87 2z m-96 -210 c0 -3 -24 -7 -53 -9
-44 -2 -50 0 -35 11 16 13 88 12 88 -2z m-170 -65 c0 -5 -7 -1 -15 10 -8 10
-14 24 -14 29 0 6 6 1 14 -9 8 -11 15 -24 15 -30z m54 25 c3 -5 -1 -12 -10
-15 -22 -9 -24 -8 -24 9 0 16 25 21 34 6z m216 -5 c0 -2 -8 -10 -17 -17 -16
-13 -17 -12 -4 4 13 16 21 21 21 13z m-125 -56 c-3 -5 -10 -10 -16 -10 -5 0
-9 5 -9 10 0 6 7 10 16 10 8 0 12 -4 9 -10z m-74 -24 c15 -1 30 -4 34 -7 3 -4
23 -3 43 2 57 13 64 12 53 -10 -28 -52 -125 -51 -163 1 -12 17 -16 28 -8 23 8
-5 26 -9 41 -9z m263 -553 c-42 -95 -65 -166 -73 -224 -1 -3 -8 -6 -16 -6 -19
0 -19 -2 11 92 14 44 27 85 28 90 2 11 56 85 62 85 2 0 -3 -17 -12 -37z m-104
-163 c-16 -40 -30 -74 -30 -75 0 -2 11 -2 25 0 29 3 34 -3 41 -43 3 -15 7 -35
10 -45 5 -16 1 -18 -33 -15 -38 3 -42 9 -32 48 3 9 -5 16 -19 18 -19 3 -23 -1
-22 -20 4 -46 2 -48 -59 -48 -50 0 -59 3 -57 18 1 11 -6 17 -19 17 -13 0 -20
-6 -19 -17 1 -13 -6 -18 -23 -18 -23 0 -24 2 -17 48 3 26 8 49 10 52 1 3 48 5
103 5 95 -1 121 5 86 19 -21 7 -8 34 40 88 22 24 41 44 43 43 1 -1 -11 -35
-28 -75z"/>
<path d="M3555 5170 c3 -5 8 -10 11 -10 2 0 4 5 4 10 0 6 -5 10 -11 10 -5 0
-7 -4 -4 -10z"/>
<path d="M1330 5441 c0 -6 4 -13 10 -16 6 -3 7 1 4 9 -7 18 -14 21 -14 7z"/>
<path d="M5790 5200 c0 -5 5 -10 11 -10 5 0 7 5 4 10 -3 6 -8 10 -11 10 -2 0
-4 -4 -4 -10z"/>
<path d="M1847 4494 c-2 -3 -26 -6 -53 -9 -27 -3 -58 -9 -69 -13 -223 -93
-324 -257 -280 -452 22 -101 147 -291 290 -444 6 -6 11 -21 12 -34 1 -13 11
-49 21 -80 11 -31 18 -73 16 -92 l-3 -35 8 32 c10 37 1 91 -23 148 -17 40 -17
40 3 20 11 -11 21 -26 23 -34 2 -8 16 -27 32 -42 17 -17 26 -35 22 -44 -3 -10
1 -15 12 -16 9 -1 24 -2 32 -3 9 0 16 -13 18 -33 3 -31 2 -33 -31 -33 -26 0
-36 5 -40 20 -3 11 -11 20 -17 20 -7 0 -10 -8 -7 -20 4 -18 0 -20 -35 -20 -37
0 -39 2 -36 28 2 19 -2 27 -12 27 -9 0 -14 -7 -12 -19 2 -11 -4 -25 -12 -32
-17 -12 -26 -98 -12 -111 11 -11 367 -9 375 2 3 6 6 17 5 25 -1 8 -2 30 -3 48
-1 25 -5 32 -21 32 -14 0 -20 7 -20 21 0 12 -5 19 -12 16 -7 -2 -12 -11 -10
-21 2 -10 -4 -16 -14 -16 -10 0 -15 3 -12 6 4 3 2 19 -2 35 -6 21 -2 48 15
101 13 40 22 75 19 79 -2 4 39 59 91 121 194 230 256 432 178 586 -27 54 -145
182 -167 182 -6 0 -24 7 -40 15 -16 9 -41 17 -55 19 -14 2 -37 6 -51 9 -35 8
-118 15 -123 11z m152 -975 c-23 -44 -38 -119 -29 -150 7 -23 6 -31 -7 -36
-17 -7 -35 15 -28 35 3 7 -2 15 -10 18 -23 9 -18 48 10 74 l26 24 -15 -42 c-8
-23 -11 -44 -6 -47 8 -5 26 66 23 93 0 6 3 12 8 12 5 0 9 6 9 13 0 14 21 39
28 33 2 -2 -2 -15 -9 -27z"/>
<path d="M4907 4488 c-129 -27 -221 -138 -211 -252 7 -71 69 -180 155 -272 16
-16 36 -50 44 -75 8 -24 12 -31 9 -16 -3 19 -1 26 6 22 5 -3 10 -11 10 -17 0
-6 8 -20 17 -30 15 -17 15 -21 3 -30 -12 -8 -11 -9 3 -4 10 3 24 6 32 6 7 0
15 10 19 23 5 17 8 19 15 9 6 -10 10 -6 15 14 4 16 14 36 22 44 50 52 137 172
160 219 37 77 43 164 16 217 -25 48 -87 109 -127 124 -56 22 -135 29 -188 18z"/>
<path d="M5006 3818 c3 -4 9 -8 15 -8 5 0 9 4 9 8 0 5 -7 9 -15 9 -8 0 -12 -4
-9 -9z"/>
<path d="M4988 3792 c-5 -19 -38 -27 -38 -10 0 5 -10 6 -22 3 -36 -11 -43 -11
-40 3 4 21 -14 13 -27 -12 -7 -12 -11 -34 -9 -47 3 -23 5 -24 108 -24 58 -1
111 1 118 3 6 2 12 19 12 38 0 38 -8 41 -75 31 -5 -1 -9 3 -10 10 0 21 -12 24
-17 5z"/>
<path d="M1806 3440 c3 -19 10 -39 15 -44 13 -14 10 2 -7 44 l-14 35 6 -35z"/>
<path d="M4213 2255 c0 -8 4 -12 9 -9 5 3 6 10 3 15 -9 13 -12 11 -12 -6z"/>
<path d="M4350 2259 c0 -5 5 -7 10 -4 6 3 10 8 10 11 0 2 -4 4 -10 4 -5 0 -10
-5 -10 -11z"/>
<path d="M4716 2253 c-6 -14 -5 -15 5 -6 7 7 10 15 7 18 -3 3 -9 -2 -12 -12z"/>
<path d="M4835 2260 c3 -5 8 -10 11 -10 2 0 4 5 4 10 0 6 -5 10 -11 10 -5 0
-7 -4 -4 -10z"/>
<path d="M5085 2260 c-3 -6 1 -7 9 -4 18 7 21 14 7 14 -6 0 -13 -4 -16 -10z"/>
<path d="M5267 2259 c7 -7 15 -10 18 -7 3 3 -2 9 -12 12 -14 6 -15 5 -6 -5z"/>
<path d="M1552 1978 c-84 -245 -80 -232 -67 -237 6 -2 20 21 32 50 36 91 39
98 41 132 1 9 7 17 13 17 6 0 9 -7 5 -15 -3 -8 0 -14 7 -12 7 1 11 -4 10 -10
-2 -7 2 -13 8 -13 6 0 8 -7 5 -17 -4 -10 -4 -14 0 -10 10 10 46 -52 38 -65 -4
-6 -3 -8 4 -4 10 6 28 -30 24 -47 -1 -5 2 -6 8 -2 5 3 10 0 10 -7 0 -8 5 -6
11 5 6 9 14 15 20 12 5 -3 6 0 3 8 -7 18 30 89 41 79 5 -4 5 -1 1 6 -9 15 20
82 35 82 6 0 7 5 4 10 -3 6 -3 15 1 21 3 6 23 -39 43 -99 20 -61 40 -114 44
-118 4 -5 43 -8 86 -9 91 0 88 -19 24 165 -25 69 -56 159 -70 200 -13 41 -28
79 -33 83 -4 5 -25 -26 -46 -67 -20 -42 -41 -76 -45 -76 -5 0 -6 -6 -3 -14 3
-7 -2 -21 -11 -29 -9 -9 -15 -19 -15 -22 0 -3 -3 -12 -8 -20 -6 -11 -24 15
-66 97 -32 62 -64 119 -70 126 -9 9 -28 -35 -84 -200z"/>
<path d="M3574 2028 c1 -125 5 -160 20 -190 48 -98 174 -131 282 -74 27 14 44
26 39 26 -6 0 -5 4 1 8 6 4 20 23 30 42 25 47 34 340 11 340 -12 0 -15 -26
-15 -140 0 -127 -2 -145 -24 -187 -32 -64 -64 -86 -130 -87 -48 -1 -53 1 -56
22 -2 13 2 22 10 22 10 0 9 3 -2 10 -13 8 -13 13 -2 31 8 11 10 19 5 16 -14
-9 -13 217 1 225 8 6 7 8 -1 8 -8 0 -13 15 -13 40 l0 40 -79 0 -79 0 2 -152z"/>
<path d="M2967 2023 c-2 -5 -3 -12 -2 -18 12 -69 19 -95 29 -95 14 0 40 84 32
105 -5 15 -52 21 -59 8z"/>
<path d="M4049 2011 c-2 -66 3 -266 7 -272 3 -5 16 -4 29 1 15 6 27 6 30 -1
12 -19 22 1 22 46 1 25 4 49 7 52 3 4 6 -1 6 -11 0 -9 7 -28 16 -41 9 -14 14
-31 11 -37 -3 -10 9 -12 46 -11 27 2 51 4 52 5 2 2 -7 23 -19 48 -51 106 -52
108 -21 136 43 39 21 40 -27 1 -51 -42 -69 -48 -73 -24 -2 9 2 17 8 17 8 0 8
3 2 8 -6 4 -11 27 -10 52 l0 45 -42 1 c-34 1 -43 -2 -44 -15z"/>
<path d="M2070 1934 c0 -14 4 -23 10 -19 9 6 14 -10 13 -42 -1 -7 4 -13 9 -13
6 0 7 -7 4 -16 -3 -8 -2 -13 3 -10 8 5 45 -71 42 -87 -4 -20 25 2 38 29 8 16
21 35 30 42 9 8 10 11 4 7 -9 -4 -11 -1 -7 9 10 26 18 19 46 -37 15 -31 33
-54 42 -54 8 0 13 4 10 9 -3 4 -1 8 5 8 6 0 8 6 5 14 -3 7 3 29 13 47 27 49
56 129 49 136 -3 3 -17 -20 -31 -52 l-26 -58 -24 50 c-12 28 -27 53 -33 57 -5
3 -20 -17 -33 -44 -13 -28 -27 -49 -31 -48 -4 2 -18 23 -30 48 -21 42 -26 45
-65 47 -40 3 -43 1 -43 -23z"/>
<path d="M2474 1951 c-38 -16 -64 -60 -64 -107 0 -23 5 -46 11 -50 8 -4 7 -9
-2 -16 -11 -6 -9 -8 6 -6 13 2 19 -2 17 -12 -2 -8 -1 -12 3 -8 4 3 23 1 43 -6
21 -6 48 -10 62 -8 30 4 78 38 67 48 -4 4 -16 -1 -26 -10 -23 -21 -50 -26 -72
-15 -14 7 -16 20 -10 73 1 4 12 6 26 4 13 -3 22 -2 20 2 -2 4 13 4 35 0 22 -4
40 -5 41 -1 0 3 2 16 5 28 7 38 -43 84 -96 89 -25 2 -55 0 -66 -5z m79 -8 c4
-3 1 -13 -6 -21 -9 -13 -9 -14 1 -8 8 5 12 -2 12 -24 0 -17 -4 -29 -9 -25 -5
3 -12 1 -16 -4 -3 -6 -13 -7 -21 -4 -10 4 -12 9 -5 16 7 7 7 16 0 29 -16 30
21 64 44 41z"/>
<path d="M2689 1941 c-5 -97 2 -192 13 -185 4 3 8 -1 8 -9 0 -18 75 -12 107 8
20 13 21 13 18 -3 -2 -14 4 -17 44 -14 l47 4 -2 96 c-1 53 -2 102 -3 108 -1
14 -81 14 -82 0 -1 -6 -1 -17 0 -25 2 -8 -2 -10 -11 -5 -10 6 -10 4 -2 -7 18
-24 10 -120 -11 -136 -31 -22 -39 -10 -40 64 0 42 3 69 9 66 5 -4 6 0 0 8 -8
13 -10 18 -13 37 0 5 -19 9 -41 9 -30 0 -40 -4 -41 -16z"/>
<path d="M3089 1942 c-25 -20 -36 -66 -19 -77 6 -4 7 -11 4 -17 -4 -7 -2 -8 4
-4 6 4 17 -2 24 -14 7 -11 18 -20 24 -20 15 0 49 -39 40 -47 -11 -11 -48 -14
-41 -3 3 5 0 7 -9 4 -8 -3 -24 -1 -35 6 -15 7 -21 7 -21 0 0 -6 12 -15 27 -21
37 -14 103 -17 96 -5 -4 5 1 7 10 3 9 -3 16 -3 16 1 -3 20 3 23 18 11 14 -12
16 -12 8 1 -5 8 -8 29 -6 47 2 25 -5 39 -33 66 -19 19 -43 37 -51 41 -9 3 -15
12 -12 19 4 14 55 11 75 -5 8 -7 12 -7 12 0 0 32 -95 42 -131 14z"/>
<path d="M4313 1944 c-2 -7 -3 -45 -1 -83 2 -43 -1 -71 -7 -71 -5 0 4 -13 21
-29 35 -32 68 -34 109 -7 21 14 25 14 25 2 0 -17 29 -25 63 -19 24 5 26 9 29
77 2 39 1 87 -2 106 -5 34 -7 35 -45 35 l-40 0 -3 -78 c-2 -55 -8 -83 -20 -97
-31 -37 -41 -25 -41 48 1 138 4 128 -42 129 -25 0 -42 -4 -46 -13z"/>
<path d="M4617 1953 c-3 -5 -5 -53 -5 -107 -1 -63 -5 -102 -12 -106 -7 -4 12
-5 42 -2 29 2 55 6 57 8 2 2 5 31 6 66 3 84 3 82 23 67 15 -12 16 -12 4 2 -17
23 -4 51 21 47 14 -2 23 3 25 15 2 11 -3 17 -16 17 -21 0 -51 -29 -53 -51 -1
-8 -4 -1 -8 16 -5 26 -11 30 -43 32 -20 2 -39 0 -41 -4z"/>
<path d="M4843 1950 c-13 -5 -23 -14 -23 -19 0 -11 27 -4 48 12 10 8 16 7 23
-4 5 -8 9 -9 9 -2 0 24 35 6 38 -21 3 -26 2 -27 -35 -21 -88 13 -150 -84 -87
-134 23 -18 25 -23 13 -38 -13 -17 -12 -17 7 0 19 16 103 26 139 17 6 -1 20
-2 33 -1 21 1 22 5 22 80 0 69 -3 84 -23 106 -18 22 -33 27 -82 31 -33 2 -70
0 -82 -6z m81 -76 c12 -4 16 -20 16 -54 0 -49 -5 -58 -38 -65 -15 -2 -17 5
-17 61 0 65 5 71 39 58z"/>
<path d="M5120 1953 c-31 -11 -48 -45 -38 -75 6 -15 14 -28 19 -28 5 0 9 -7 9
-15 0 -8 3 -14 8 -13 12 4 52 -26 52 -39 0 -7 5 -13 11 -13 5 0 8 -4 5 -9 -8
-12 -74 -5 -92 10 -15 13 -19 2 -5 -19 8 -14 82 -18 117 -7 23 7 44 43 44 75
0 10 -22 38 -50 62 -27 24 -50 48 -50 55 0 14 47 8 67 -9 10 -8 13 -6 13 5 0
22 -68 35 -110 20z"/>
<path d="M5333 1950 c-13 -5 -23 -14 -23 -20 0 -13 13 -13 26 0 6 6 28 11 50
13 36 2 39 0 42 -25 3 -24 1 -26 -35 -23 -21 1 -50 -2 -65 -7 -32 -11 -53 -57
-42 -95 4 -16 6 -32 5 -38 -2 -5 1 -7 4 -3 4 4 16 3 27 -3 21 -12 99 -18 92
-8 -4 6 55 3 99 -6 9 -2 14 1 11 6 -3 6 -7 46 -8 90 -2 102 -18 121 -103 126
-32 1 -68 -2 -80 -7z m72 -80 c-3 -6 1 -7 9 -4 13 5 15 -3 15 -44 -1 -43 -5
-52 -26 -61 -19 -9 -25 -8 -30 5 -3 9 0 20 8 25 8 5 9 9 4 9 -6 0 -10 15 -9
33 2 46 2 47 20 47 8 0 12 -4 9 -10z"/>
<path d="M3531 1469 c-15 -17 -71 -145 -71 -165 0 -2 6 -4 13 -4 8 0 19 18 26
40 6 22 16 40 22 40 6 0 7 6 3 13 -5 9 -4 9 6 0 11 -10 11 -20 3 -48 -9 -30
-9 -37 3 -42 8 -3 21 0 29 7 9 7 15 8 15 2 0 -5 9 -12 20 -15 11 -3 18 -2 15
3 -3 4 2 10 10 14 8 3 15 11 15 17 0 9 -4 9 -14 0 -30 -25 -27 10 3 40 29 28
29 30 9 27 -13 -2 -32 -17 -43 -35 -22 -35 -52 -55 -41 -27 17 45 18 64 2 64
-21 0 -20 9 3 39 18 24 18 51 0 51 -4 0 -17 -9 -28 -21z m29 -6 c0 -5 -10 -19
-21 -33 -11 -14 -18 -18 -15 -10 3 8 9 23 12 33 6 17 24 24 24 10z"/>
<path d="M3871 1461 c-12 -16 -21 -32 -21 -36 0 -10 -33 -79 -40 -85 -3 -3 -7
-15 -7 -27 -2 -27 20 -21 35 10 8 16 11 18 11 6 2 -29 25 -40 49 -23 13 9 22
11 22 5 0 -6 9 -11 20 -11 11 0 20 5 20 10 0 6 -4 10 -9 10 -11 0 -3 39 12 58
5 7 7 15 4 19 -9 8 -37 -16 -37 -32 0 -6 -8 -19 -19 -29 -15 -14 -20 -14 -29
-3 -7 8 -8 18 -4 22 4 5 -2 5 -12 1 -16 -5 -17 -4 -6 9 7 8 9 15 4 15 -4 0 -3
5 3 11 6 6 9 18 6 25 -5 15 25 69 34 61 2 -3 -3 -17 -13 -31 -9 -15 -14 -29
-11 -32 8 -9 39 55 32 66 -10 17 -23 11 -44 -19z"/>
<path d="M1950 1458 c-18 -13 -42 -41 -55 -63 -21 -38 -21 -41 -5 -70 9 -16
26 -31 38 -33 28 -4 88 15 107 35 24 24 17 38 -7 16 -51 -46 -101 -51 -113
-12 -15 47 48 139 95 139 29 0 33 -17 8 -34 -26 -19 -21 -27 10 -15 25 10 30
44 6 53 -28 11 -50 6 -84 -16z"/>
<path d="M3395 1456 c-17 -26 -12 -52 17 -77 22 -20 23 -52 3 -69 -8 -7 -15
-18 -15 -24 0 -6 4 -5 9 3 5 8 16 11 25 8 9 -4 15 -3 14 1 -1 4 4 20 11 36 12
30 10 33 -37 84 -19 21 -11 46 16 50 23 4 32 -23 10 -30 -9 -3 -9 -6 -1 -11 6
-4 19 0 28 9 12 12 13 19 4 30 -19 23 -66 17 -84 -10z"/>
<path d="M5053 1462 c35 -39 -13 -133 -83 -161 -23 -9 -23 -10 -4 -10 12 -1
27 6 34 14 7 8 18 15 24 15 6 0 20 13 31 29 10 16 22 28 25 26 3 -2 6 19 5 47
0 46 -2 51 -24 55 -23 3 -24 2 -8 -15z"/>
<path d="M4189 1446 c-40 -27 -83 -107 -74 -136 7 -23 35 -34 49 -20 7 7 5 10
-7 10 -11 0 -17 8 -17 24 0 42 19 80 58 113 44 39 40 42 -9 9z"/>
<path d="M2460 1435 c-8 -9 -8 -15 -2 -15 12 0 26 19 19 26 -2 2 -10 -2 -17
-11z"/>
<path d="M2815 1439 c-11 -17 1 -21 15 -4 8 9 8 15 2 15 -6 0 -14 -5 -17 -11z"/>
<path d="M4730 1434 c0 -8 5 -12 10 -9 6 3 10 10 10 16 0 5 -4 9 -10 9 -5 0
-10 -7 -10 -16z"/>
<path d="M2388 1420 c-7 -11 -20 -20 -28 -20 -11 0 -12 -2 -3 -8 9 -6 8 -16
-7 -40 -27 -44 -44 -41 -25 5 8 20 13 38 10 41 -6 7 -45 -28 -45 -40 0 -10
-25 -38 -34 -38 -15 0 -4 33 19 55 21 22 22 25 6 25 -18 0 -51 -29 -51 -46 0
-14 -38 -44 -55 -44 -9 0 -15 9 -15 21 0 16 5 20 18 17 20 -6 42 14 42 37 0 8
-8 15 -18 15 -22 0 -62 -27 -62 -43 0 -7 -9 -18 -20 -25 -17 -10 -20 -10 -20
2 0 8 4 17 9 20 15 10 20 46 6 46 -11 0 -22 -21 -38 -71 -10 -32 8 -41 36 -19
21 17 27 18 27 7 0 -22 41 -29 61 -11 11 10 19 12 24 5 3 -6 17 -10 30 -9 13
1 22 5 19 9 -2 4 0 10 6 14 5 3 10 -1 10 -9 0 -21 19 -20 42 1 17 15 18 15 18
0 0 -11 8 -17 21 -17 16 0 19 4 14 18 -8 22 -8 23 0 50 4 12 15 22 24 22 13 0
14 2 2 9 -12 8 -12 12 -2 25 9 11 10 16 2 16 -6 0 -16 -9 -23 -20z m-180 -42
c-3 -7 -13 -15 -24 -17 -16 -3 -17 -1 -5 13 16 19 34 21 29 4z"/>
<path d="M2063 1378 c0 -18 2 -25 4 -15 3 9 8 17 13 17 5 0 7 7 4 15 -10 26
-21 17 -21 -17z"/>
<path d="M2846 1392 c-14 -17 -14 -20 0 -41 9 -12 13 -30 9 -39 -6 -16 -8 -16
-20 2 -9 12 -21 17 -35 13 -24 -6 -24 -6 -6 38 8 19 11 35 7 35 -14 0 -28 -23
-39 -62 -9 -33 -8 -38 7 -38 9 0 22 5 29 12 9 9 12 9 12 1 0 -35 90 -14 104
24 5 16 4 15 -9 -1 -13 -18 -15 -18 -15 -3 0 10 -7 20 -15 23 -8 4 -15 15 -15
26 0 10 5 16 10 13 6 -4 8 -11 5 -16 -4 -5 -2 -9 4 -9 19 0 21 19 3 29 -15 8
-23 6 -36 -7z"/>
<path d="M3787 1386 c-44 -48 -61 -76 -38 -62 5 3 11 -4 14 -16 5 -19 8 -20
23 -8 9 8 12 16 6 18 -12 4 -4 39 16 70 19 29 7 28 -21 -2z"/>
<path d="M4547 1389 c3 -10 9 -16 14 -13 13 8 11 21 -5 27 -10 4 -12 0 -9 -14z"/>
<path d="M4610 1395 c-10 -12 -9 -20 4 -40 10 -15 14 -34 11 -45 -7 -22 7 -27
22 -7 13 16 9 43 -11 62 -8 9 -13 22 -10 30 8 19 0 19 -16 0z"/>
<path d="M2415 1362 c-20 -35 -20 -39 -4 -56 10 -10 20 -13 23 -8 3 6 14 8 25
5 16 -4 30 15 27 38 -1 10 35 49 45 49 5 0 4 -12 -1 -26 -6 -14 -10 -37 -10
-51 0 -24 1 -25 23 -10 19 12 24 12 36 0 11 -12 16 -12 33 4 20 18 21 18 13
-7 -4 -14 -12 -31 -17 -37 -13 -16 -42 -17 -32 -2 4 7 2 10 -5 8 -21 -7 -13
-24 13 -27 18 -2 31 5 47 27 13 17 24 38 25 46 1 8 9 29 18 46 19 39 19 39 2
39 -7 0 -19 -14 -26 -30 -15 -36 -50 -60 -50 -35 0 9 11 27 25 41 25 25 25 25
3 22 -13 -2 -32 -17 -43 -35 -22 -35 -52 -55 -41 -27 20 52 19 64 -7 64 -14 0
-28 -6 -30 -12 -4 -10 -6 -10 -6 0 -2 23 -17 12 -29 -22 -7 -19 -19 -37 -27
-40 -19 -7 -19 -4 -1 39 21 49 -3 47 -29 -3z"/>
<path d="M3005 1390 c-2 -3 -10 -25 -18 -48 -12 -34 -12 -42 -2 -42 8 0 19 16
25 35 11 33 50 69 50 46 0 -20 -23 -60 -31 -55 -5 3 -6 -2 -3 -10 8 -21 34
-21 34 0 0 9 5 12 12 8 7 -4 8 -3 4 4 -9 14 8 48 28 55 13 5 13 1 1 -34 -13
-35 -13 -41 1 -46 8 -3 20 -1 27 6 8 8 8 11 0 11 -8 0 -8 10 0 35 13 42 5 52
-28 37 -14 -7 -25 -8 -25 -2 0 10 -68 11 -75 0z"/>
<path d="M3164 1366 c-26 -42 -28 -50 -15 -42 7 5 9 1 5 -8 -4 -11 0 -16 14
-16 15 0 19 5 15 19 -3 10 2 32 11 48 21 41 -4 40 -30 -1z"/>
<path d="M3217 1355 c-14 -25 -20 -42 -14 -38 7 4 6 0 -2 -10 -7 -9 -10 -17
-6 -17 5 0 0 -9 -10 -20 -20 -22 -37 -18 -28 8 6 15 5 15 -11 3 -17 -14 -17
-16 -1 -27 18 -13 65 0 65 18 0 5 6 6 13 2 6 -4 9 -4 5 1 -4 4 2 30 12 58 26
67 10 82 -23 22z"/>
<path d="M3660 1375 c-7 -13 -18 -22 -24 -18 -6 3 -5 0 2 -8 6 -7 12 -24 12
-36 0 -21 2 -22 21 -12 15 8 18 13 10 19 -10 5 -9 16 3 44 12 28 12 36 2 36
-7 0 -19 -11 -26 -25z"/>
<path d="M3711 1365 c-24 -40 -19 -61 14 -67 16 -4 22 -1 18 9 -3 7 -9 13 -14
13 -5 0 -2 16 6 36 18 43 18 44 6 44 -5 0 -18 -16 -30 -35z"/>
<path d="M3877 1394 c-6 -6 16 -34 27 -34 3 0 6 9 6 20 0 19 -20 27 -33 14z"/>
<path d="M3985 1363 c-22 -33 -23 -39 -10 -53 18 -17 40 -7 64 31 l15 24 -23
-23 c-30 -30 -36 -23 -17 22 20 47 4 46 -29 -1z"/>
<path d="M4295 1392 c-10 -6 -65 -138 -65 -154 0 -4 7 -5 15 -2 8 4 15 15 15
25 0 10 5 19 11 19 5 0 7 5 3 12 -5 8 -2 9 9 5 19 -7 77 11 77 24 0 5 -4 9
-10 9 -5 0 -10 -5 -10 -12 0 -6 -2 -9 -5 -6 -3 2 2 19 11 36 8 18 13 36 9 42
-7 12 -45 13 -60 2z m35 -26 c0 -19 -37 -62 -45 -54 -4 4 1 20 11 35 10 15 17
32 16 36 -1 5 2 6 8 2 5 -3 10 -12 10 -19z"/>
<path d="M4381 1372 c-15 -21 -18 -36 -13 -56 l8 -28 24 22 c19 16 20 20 7 16
-15 -5 -17 -2 -12 17 4 12 17 30 29 39 l21 18 -22 0 c-13 0 -30 -12 -42 -28z"/>
<path d="M4449 1378 c-7 -13 -16 -25 -20 -28 -5 -3 -6 -16 -2 -28 6 -23 27
-30 38 -12 4 6 16 3 31 -7 32 -20 77 -4 68 24 -3 10 3 6 12 -9 19 -28 34 -36
34 -19 0 5 -7 16 -15 24 -8 8 -11 18 -7 22 4 5 2 5 -4 2 -14 -8 -54 20 -54 39
0 8 -4 14 -10 14 -5 0 -10 -11 -10 -25 0 -14 5 -25 10 -25 6 0 10 -11 10 -25
0 -17 -4 -23 -15 -19 -8 4 -12 10 -9 15 3 5 0 9 -6 9 -7 0 -10 7 -6 18 4 11
-1 8 -15 -8 l-21 -25 5 25 c2 14 8 33 12 43 11 25 -12 21 -26 -5z"/>
<path d="M4643 1385 c0 -8 4 -15 8 -15 4 0 9 7 13 15 3 9 0 15 -8 15 -7 0 -13
-7 -13 -15z"/>
<path d="M4686 1363 c-25 -41 -24 -63 4 -63 23 0 35 17 18 23 -10 3 -9 12 4
40 23 48 5 48 -26 0z"/>
<path d="M4748 1372 c-38 -43 -23 -86 26 -74 11 3 25 11 29 19 11 18 37 16 37
-3 0 -9 -5 -12 -12 -8 -7 4 -8 3 -4 -4 11 -18 32 -3 46 34 15 37 36 61 46 51
3 -3 0 -19 -8 -34 -8 -16 -12 -38 -8 -48 6 -16 10 -15 41 13 19 17 29 32 23
32 -7 0 -14 -7 -18 -15 -3 -8 -10 -15 -15 -15 -7 0 -7 9 -1 26 18 45 13 53
-30 51 -29 -1 -40 -6 -40 -17 0 -17 -19 -40 -33 -40 -4 0 -7 8 -6 18 3 34 -1
42 -24 42 -13 0 -35 -12 -49 -28z m56 -4 c-2 -35 -15 -58 -31 -58 -12 0 -14 7
-8 27 12 49 42 72 39 31z"/>
<path d="M2808 1343 c7 -3 16 -2 19 1 4 3 -2 6 -13 5 -11 0 -14 -3 -6 -6z"/>
<path d="M3347 1330 c-3 -14 1 -24 15 -31 23 -12 37 -4 21 12 -6 6 -9 18 -6
25 3 8 -1 14 -10 14 -8 0 -17 -9 -20 -20z"/>
<path d="M2093 6455 c0 -8 4 -12 9 -9 5 3 6 10 3 15 -9 13 -12 11 -12 -6z"/>
<path d="M1621 6370 c-22 -17 -45 -30 -50 -30 -5 0 -11 -3 -13 -8 -1 -4 -46
-38 -98 -77 -52 -38 -97 -72 -100 -75 -3 -3 -36 -32 -75 -64 -96 -80 -327
-315 -400 -406 -33 -41 -62 -77 -66 -80 -3 -3 -18 -23 -34 -45 -17 -22 -32
-42 -35 -45 -3 -3 -32 -44 -64 -92 -49 -72 -57 -90 -47 -102 7 -8 9 -21 5 -28
-4 -7 -3 -10 1 -6 10 10 55 -63 48 -77 -2 -5 3 -1 11 10 9 11 23 28 31 38 8 9
15 21 15 26 0 4 11 20 24 34 13 14 22 28 20 30 -2 2 7 16 21 31 14 15 25 31
25 35 0 5 7 12 16 15 9 4 14 9 11 12 -8 9 16 33 27 26 5 -3 6 0 3 5 -8 13 62
105 74 97 5 -3 6 2 2 12 -5 13 -2 15 18 9 17 -4 20 -4 10 4 -12 8 -8 17 24 53
22 24 46 51 54 60 12 13 17 15 24 5 6 -8 7 -7 3 5 -3 11 4 24 18 35 12 10 30
30 40 45 10 15 22 26 26 23 4 -3 11 2 14 11 3 8 11 12 17 8 7 -4 9 -3 6 3 -8
13 109 127 123 118 6 -3 9 -3 8 2 -2 4 7 18 20 31 12 12 22 20 22 17 0 -2 16
11 35 31 19 19 35 31 35 27 0 -4 7 3 16 16 13 18 18 20 25 10 7 -11 9 -11 9 2
0 17 19 32 167 131 119 80 118 74 22 123 l-47 24 -41 -29z"/>
<path d="M5267 6361 c-64 -36 -67 -38 -49 -54 10 -9 23 -17 28 -17 5 0 17 -9
27 -20 9 -11 23 -20 30 -20 7 0 27 -13 45 -29 17 -17 32 -28 32 -25 0 3 6 -1
14 -8 7 -7 24 -20 36 -28 13 -8 32 -23 42 -32 10 -10 20 -18 23 -18 15 0 154
-124 148 -133 -3 -6 -1 -7 5 -3 11 7 68 -43 64 -57 -1 -5 1 -6 6 -3 11 7 125
-108 116 -117 -4 -4 -1 -7 8 -7 21 0 80 -68 72 -83 -4 -6 -3 -9 1 -4 11 9 46
-23 39 -35 -3 -4 -1 -7 4 -6 6 2 12 -1 14 -7 1 -5 20 -27 41 -48 20 -21 35
-43 31 -48 -3 -5 -1 -8 5 -7 14 4 92 -102 84 -115 -3 -5 -1 -7 5 -3 12 7 52
-44 52 -69 0 -9 5 -13 10 -10 6 3 10 -1 10 -9 0 -9 4 -16 8 -16 14 0 43 -60
36 -73 -4 -6 -3 -9 1 -4 5 4 17 -1 28 -10 11 -10 17 -12 13 -5 -7 11 45 109
65 122 8 6 -62 115 -134 209 -68 87 -86 110 -159 196 -152 178 -391 395 -598
542 -146 103 -125 98 -203 54z"/>
<path d="M1330 5961 c0 -6 4 -13 10 -16 6 -3 7 1 4 9 -7 18 -14 21 -14 7z"/>
<path d="M5736 5887 c3 -10 9 -15 12 -12 3 3 0 11 -7 18 -10 9 -11 8 -5 -6z"/>
<path d="M531 5198 c-61 -96 -205 -417 -253 -566 -8 -23 -18 -39 -23 -35 -4 5
-5 3 -1 -4 3 -7 -7 -58 -24 -115 -18 -57 -34 -114 -36 -128 -3 -14 -7 -32 -10
-40 -3 -8 -8 -33 -11 -55 -3 -22 -9 -48 -14 -57 -6 -10 -8 -18 -6 -18 3 0 0
-19 -5 -42 -5 -24 -11 -65 -14 -93 -3 -27 -11 -53 -18 -57 -8 -6 -7 -8 2 -8 7
0 11 -4 8 -8 -6 -11 -20 -128 -19 -164 0 -16 -2 -28 -6 -28 -14 0 0 -626 15
-652 5 -7 17 -109 18 -148 1 -14 4 -27 8 -30 3 -3 7 -23 9 -45 1 -22 6 -44 10
-50 4 -5 9 -28 13 -50 3 -22 14 -70 24 -106 10 -37 18 -78 18 -92 -1 -14 1
-24 5 -21 9 5 16 -16 14 -43 -1 -12 2 -20 5 -18 10 6 34 -81 26 -93 -3 -5 1
-15 9 -22 11 -9 34 -61 40 -90 1 -3 9 -23 19 -45 10 -22 19 -50 19 -62 1 -11
4 -20 7 -18 3 2 12 -11 19 -28 7 -18 19 -44 27 -60 8 -15 12 -27 9 -27 -4 0 1
-7 10 -16 9 -9 14 -23 11 -30 -3 -8 -1 -14 4 -14 6 0 20 -21 32 -47 12 -27 32
-65 45 -86 13 -21 21 -42 18 -47 -4 -6 -2 -10 4 -10 5 0 21 18 34 40 13 22 27
38 30 35 4 -3 5 -2 2 1 -2 4 2 19 11 33 14 23 14 29 -1 61 -8 19 -20 42 -25
50 -46 71 -215 493 -204 511 3 5 1 9 -4 9 -9 0 -41 112 -47 162 -2 14 -6 31
-10 37 -3 6 -8 21 -10 33 -3 13 -10 47 -16 75 -5 29 -12 65 -14 80 -2 16 -4
28 -5 28 -6 0 -27 149 -35 250 -3 33 -8 68 -11 79 -4 13 -2 16 6 11 9 -6 9 -3
1 13 -15 28 -14 45 2 36 9 -6 9 -5 0 7 -9 11 -12 65 -11 192 1 97 4 177 7 177
3 0 7 37 8 83 2 45 5 91 7 102 3 11 5 30 5 43 1 16 5 21 13 16 10 -6 10 -5 1
8 -7 8 -11 17 -9 19 3 2 7 22 10 44 6 50 35 195 43 215 3 8 5 20 4 26 -1 7 4
25 10 40 6 16 13 42 15 57 2 16 9 37 14 48 6 10 8 19 5 19 -3 0 1 13 10 30 8
16 15 32 15 35 -1 29 1 35 12 29 6 -4 8 -3 5 3 -8 13 42 163 54 163 6 0 7 5 4
11 -4 5 1 20 12 31 10 12 13 18 6 14 -7 -3 -2 16 10 43 12 27 25 47 29 45 4
-3 6 4 6 13 -1 10 21 64 50 120 50 100 51 102 33 125 -10 13 -26 38 -35 56
-20 38 -26 39 -45 10z"/>
<path d="M6410 5163 c-20 -34 -35 -71 -35 -90 0 -17 3 -30 6 -28 10 7 41 -56
35 -71 -3 -8 -2 -13 3 -10 12 7 122 -236 133 -294 2 -8 6 -17 9 -20 3 -3 19
-50 36 -105 48 -151 47 -148 32 -141 -8 4 -6 1 4 -8 12 -9 19 -29 20 -54 1
-22 6 -38 10 -35 5 3 7 -5 6 -18 -2 -13 2 -34 9 -46 7 -12 13 -46 15 -76 1
-30 5 -53 10 -50 4 2 8 -13 9 -34 2 -56 3 -61 11 -69 4 -4 1 -14 -6 -22 -9
-13 -9 -14 1 -8 8 5 12 -1 13 -21 1 -15 3 -44 5 -63 2 -19 6 -70 8 -113 3 -42
7 -80 9 -85 6 -11 0 -370 -7 -434 -3 -32 -9 -84 -12 -115 -3 -32 -11 -64 -16
-70 -7 -9 -7 -13 1 -13 7 0 10 -4 7 -8 -5 -8 -7 -20 -21 -104 -5 -29 -15 -75
-42 -200 -3 -16 -8 -28 -12 -28 -3 0 -7 -10 -7 -22 -2 -34 -14 -82 -22 -88 -4
-3 -8 -18 -10 -35 -2 -16 -8 -35 -14 -42 -6 -7 -8 -13 -5 -13 6 0 -14 -65 -32
-105 -5 -11 -28 -67 -50 -125 -23 -58 -66 -154 -96 -214 l-55 -110 25 -37 c13
-21 26 -44 27 -50 2 -7 11 -21 21 -31 18 -19 19 -19 32 -1 8 10 15 24 15 31 0
6 4 12 9 12 5 0 11 9 14 21 3 12 10 18 16 14 6 -3 9 0 6 8 -7 18 79 190 90
180 4 -5 5 -3 2 3 -4 7 0 29 9 50 36 90 48 114 57 114 4 0 6 4 2 9 -7 12 24
104 37 112 5 3 9 9 9 13 -4 25 0 46 8 42 5 -4 7 4 3 16 -3 13 -1 19 5 15 7 -5
9 1 5 15 -3 11 -1 19 4 16 5 -3 10 10 11 30 1 20 7 38 13 40 5 2 8 7 6 11 -3
4 2 34 11 67 16 65 22 86 29 124 2 14 7 32 11 40 3 8 7 29 9 45 3 26 10 67 19
111 3 10 13 95 21 159 1 17 4 49 5 73 1 23 7 42 13 42 7 0 7 3 0 10 -6 6 -8
28 -4 53 8 56 5 336 -5 467 -4 58 -9 121 -9 140 -1 19 -4 37 -7 40 -4 3 -9 31
-13 63 -3 32 -8 62 -10 65 -2 4 -7 27 -10 52 -3 25 -19 99 -35 165 -16 66 -27
123 -25 127 3 5 0 8 -5 8 -6 0 -11 6 -11 14 0 23 -68 221 -117 341 -63 155
-188 405 -203 405 -3 0 -21 -26 -40 -57z"/>
<path d="M693 1818 c-5 -7 -22 -35 -38 -62 -23 -41 -26 -53 -16 -68 6 -10 9
-23 6 -29 -4 -5 -3 -8 2 -7 4 2 9 -1 10 -6 0 -5 8 -13 17 -18 9 -5 16 -13 16
-19 0 -5 4 -15 10 -22 48 -59 61 -77 54 -77 -5 0 2 -7 14 -16 12 -8 22 -21 22
-27 0 -7 9 -18 20 -25 11 -7 20 -21 20 -32 0 -11 5 -19 11 -18 6 2 16 -6 22
-17 7 -11 20 -27 29 -36 10 -9 15 -19 11 -23 -3 -3 1 -6 10 -6 10 0 17 -4 17
-9 0 -4 22 -32 50 -61 27 -29 47 -58 43 -64 -3 -6 -2 -8 2 -3 5 4 21 -5 37
-20 23 -22 26 -29 15 -42 -11 -14 -10 -14 6 -2 16 12 22 9 18 -12 -1 -5 3 -6
7 -3 12 7 44 -28 35 -39 -5 -4 -3 -5 3 -2 6 4 32 -12 56 -36 52 -48 76 -69
136 -115 23 -19 39 -39 36 -44 -4 -6 -2 -8 3 -5 13 8 106 -61 98 -72 -2 -5 3
-8 13 -7 9 0 16 -5 15 -11 -2 -7 0 -12 5 -12 20 3 43 -2 38 -9 -2 -4 9 -14 25
-21 16 -7 26 -17 23 -23 -4 -6 -3 -8 3 -5 5 3 24 -3 41 -13 18 -11 32 -16 32
-12 0 13 76 52 85 44 5 -4 5 -2 1 5 -3 7 2 14 14 18 11 3 20 9 20 13 -1 4 -33
27 -73 52 -67 42 -276 193 -287 209 -3 3 -24 21 -48 40 -23 18 -39 38 -36 43
4 7 2 8 -4 4 -11 -6 -266 233 -258 241 2 2 -13 21 -33 41 -72 72 -244 299
-311 410 -27 45 -33 48 -47 30z"/>
<path d="M6189 1702 c-48 -70 -92 -126 -98 -124 -7 1 -10 -2 -6 -8 9 -14 -14
-42 -28 -33 -6 3 -7 1 -3 -5 9 -14 -143 -194 -156 -186 -6 4 -8 2 -5 -3 11
-17 -168 -194 -343 -340 -91 -75 -125 -101 -263 -193 l-87 -59 66 -37 c47 -26
62 -39 52 -45 -7 -5 -9 -9 -5 -9 13 0 69 31 104 57 18 14 37 21 44 17 7 -4 9
-3 6 3 -4 5 5 16 18 23 14 7 25 17 25 22 0 4 5 8 11 8 7 0 19 8 28 18 31 33
114 91 123 86 4 -3 7 -2 6 3 -5 16 40 55 54 47 7 -4 10 -4 6 1 -10 11 11 37
23 29 5 -3 8 -2 7 3 -1 4 6 18 17 30 15 18 22 20 34 10 12 -10 13 -9 7 2 -10
16 132 164 147 154 6 -3 7 -1 3 6 -5 7 10 29 36 54 24 24 67 73 97 110 30 36
58 64 64 60 6 -4 7 -1 3 6 -10 15 23 53 37 44 6 -3 7 -1 3 6 -5 7 6 29 26 54
38 48 86 116 109 155 15 25 14 29 -24 94 -21 38 -42 68 -45 68 -4 0 -46 -58
-93 -128z"/>
<path d="M5776 1338 c3 -5 10 -6 15 -3 13 9 11 12 -6 12 -8 0 -12 -4 -9 -9z"/>
<path d="M1466 1062 c-3 -5 1 -9 9 -9 8 0 12 4 9 9 -3 4 -7 8 -9 8 -2 0 -6 -4
-9 -8z"/>
<path d="M1555 1000 c3 -5 8 -10 11 -10 2 0 4 5 4 10 0 6 -5 10 -11 10 -5 0
-7 -4 -4 -10z"/>
<path d="M1720 886 c0 -2 8 -10 18 -17 15 -13 16 -12 3 4 -13 16 -21 21 -21
13z"/>
<path d="M4955 721 c-3 -5 -2 -12 3 -15 5 -3 9 1 9 9 0 17 -3 19 -12 6z"/>
<path d="M5410 700 c0 -5 5 -10 11 -10 5 0 7 5 4 10 -3 6 -8 10 -11 10 -2 0
-4 -4 -4 -10z"/>
<path d="M4965 623 c-97 -50 -283 -130 -312 -135 -10 -2 -20 -6 -23 -9 -8 -11
-272 -92 -301 -93 -15 -1 -25 -4 -22 -8 4 -8 -11 -10 -64 -11 -13 -1 -23 -4
-23 -8 0 -4 -15 -10 -32 -13 -18 -3 -44 -8 -58 -11 -13 -3 -42 -7 -65 -10 -22
-3 -47 -8 -55 -10 -8 -2 -39 -7 -69 -10 -30 -4 -61 -8 -70 -10 -93 -18 -468
-25 -630 -12 -103 9 -192 19 -261 31 -19 3 -48 8 -64 11 -181 29 -449 106
-656 190 -164 67 -180 75 -180 86 0 5 -4 8 -8 5 -5 -3 -29 5 -53 18 -75 40
-81 40 -148 0 -33 -20 -61 -40 -61 -44 0 -4 20 -17 45 -30 24 -12 42 -27 38
-33 -3 -6 -1 -7 4 -4 12 7 187 -76 178 -84 -3 -3 5 -5 18 -5 12 1 21 -4 20
-10 -1 -7 6 -10 17 -7 12 3 20 0 20 -6 0 -7 4 -10 9 -6 5 3 16 -1 24 -9 8 -8
17 -12 21 -9 3 3 12 1 19 -5 8 -7 17 -9 20 -5 4 3 7 2 7 -4 0 -6 12 -13 27
-16 23 -4 116 -35 193 -64 8 -3 24 -8 35 -10 11 -2 31 -7 45 -12 14 -6 40 -13
58 -16 18 -4 30 -10 28 -14 -3 -4 8 -6 25 -5 16 1 29 -1 29 -5 0 -4 10 -8 23
-8 32 -2 85 -11 111 -19 23 -8 42 -12 98 -20 21 -4 35 -10 32 -15 -3 -5 -1 -9
5 -9 5 0 11 6 14 13 3 8 10 6 22 -8 9 -11 14 -15 11 -8 -9 18 56 11 72 -7 8
-8 11 -9 7 -2 -5 10 5 12 47 7 29 -3 79 -7 111 -8 46 -2 56 -5 51 -17 -4 -12
-3 -13 7 -3 16 16 63 18 54 2 -4 -6 2 -5 13 2 17 11 24 10 38 -2 10 -8 15 -9
11 -3 -4 7 15 11 58 10 35 0 62 -3 60 -6 -2 -4 2 -7 10 -7 8 0 12 4 9 9 -3 4
-1 8 5 8 5 0 13 -5 16 -10 5 -8 11 -7 21 1 11 9 18 8 31 -2 13 -11 15 -11 9
-1 -6 11 -1 13 20 11 16 -2 35 0 42 4 7 5 12 3 12 -4 0 -8 4 -8 13 -2 6 5 36
9 65 9 28 -1 52 4 52 9 0 6 5 3 10 -5 5 -8 10 -10 10 -4 0 6 6 11 13 11 6 0
34 3 60 7 31 4 46 3 43 -3 -4 -5 -2 -13 4 -16 6 -4 9 -1 8 7 -2 7 5 12 14 12
10 -1 15 2 12 7 -5 8 43 14 94 11 12 0 20 3 17 9 -9 14 39 11 54 -4 10 -10 11
-8 5 7 -6 15 -4 18 8 13 9 -3 19 -3 22 1 6 6 16 8 66 16 14 2 32 6 40 10 8 3
24 7 35 9 11 2 28 7 38 12 9 4 25 4 34 1 10 -4 14 -4 10 0 -8 9 63 35 75 28 4
-3 8 0 8 5 0 6 3 10 8 9 4 0 15 2 25 7 9 4 26 5 37 2 11 -3 18 -1 15 3 -3 5
19 16 47 26 29 9 71 25 93 35 29 13 43 15 52 7 10 -8 12 -7 8 3 -4 10 14 22
57 39 35 14 69 24 75 24 7 -1 11 2 8 6 -2 4 30 24 73 44 103 49 178 93 172
103 -6 11 -119 83 -128 82 -4 0 -47 -21 -97 -46z"/>
<path d="M2210 626 c0 -2 7 -7 16 -10 8 -3 12 -2 9 4 -6 10 -25 14 -25 6z"/>
<path d="M2516 498 c3 -5 10 -6 15 -3 13 9 11 12 -6 12 -8 0 -12 -4 -9 -9z"/>
<path d="M4550 281 c0 -6 4 -13 10 -16 6 -3 7 1 4 9 -7 18 -14 21 -14 7z"/>
<path d="M4469 243 c-13 -16 -12 -17 4 -4 16 13 21 21 13 21 -2 0 -10 -8 -17
-17z"/>
</g>
</svg>
